<?xml version="1.0" encoding="utf-8"?>
<!-- Generator: Adobe Illustrator 22.0.0, SVG Export Plug-In . SVG Version: 6.00 Build 0)  -->
<svg version="1.1" id="Calque_1" xmlns="http://www.w3.org/2000/svg" xmlns:xlink="http://www.w3.org/1999/xlink" x="0px" y="0px"
	 viewBox="60 60 310 310" style="enable-background:new 0 0 432 432;" xml:space="preserve">
<style type="text/css">
	.st0{fill:#EFCB92;}
	.st1{fill:#C6E5E5;}
	.st2{fill:#1D1D1C;}
	.st3{fill:#221C1E;}
	.st4{fill:#BE1622;}
	.st5{fill:#BA874D;}
	.st6{fill:#A01A18;}
	.st7{fill:#F3EEEC;}
	.st8{fill:#8F1915;}
	.st9{fill:#7A170F;}
	.st10{fill:#F4DF87;}
	.st11{fill:#456829;}
	.st12{fill:#38491D;}
	.st13{fill:#E1C85C;}
	.st14{fill:#AB3117;}
	.st15{fill:#77160F;}
	.st16{fill:#734525;}
	.st17{fill:#F7F4E6;}
	.st18{fill:#472713;}
	.st19{fill:#FFFFFF;}
	.st20{fill:#371F11;}
	.st21{fill:#B0AEAE;}
	.st22{fill:#B3B2B2;}
	.st23{fill:#DCD9D8;}
	.st24{fill:#946859;}
	.st25{fill:#801E1E;}
	.st26{fill:#603A13;}
	.st27{fill:#CD904F;}
	.st28{fill:#663D11;}
	.st29{fill:#3B211E;}
	.st30{fill:#86563E;}
	.st31{fill:#66413A;}
	.st32{fill:none;}
	.st33{fill:#D1AF97;}
	.st34{fill:#A91917;}
	.st35{fill:#362E2E;}
	.st36{fill:#614444;}
	.st37{fill:#FEF8F8;}
	.st38{fill:#9E9994;}
	.st39{fill:#807D7A;}
	.st40{fill:#C57917;}
	.st41{fill:#985119;}
	.st42{fill:#6E3E13;}
	.st43{fill:#EC670B;}
	.st44{fill:#FAB40E;}
	.st45{fill:#FFD802;}
	.st46{fill:#595959;}
	.st47{fill:#1D1F1F;}
	.st48{fill:#9FC1BD;}
	.st49{fill:#558E8B;}
	.st50{fill:#AA794B;}
	.st51{fill:#CCCECE;}
	.st52{fill:#70A09D;}
	.st53{fill:#DDC915;}
	.st54{fill:#FBEA2E;}
	.st55{fill:#020203;}
	.st56{fill:#1A1A19;}
	.st57{fill:#E2B774;}
	.st58{fill:#CE9E5F;}
	.st59{fill:#E3DBD0;}
	.st60{fill:#F7F2EB;}
	.st61{fill:#FFFFFE;}
	.st62{fill:#F3BED1;}
	.st63{fill:#E2C39D;}
	.st64{fill:#946342;}
	.st65{fill:#D11320;}
	.st66{fill:#EDBFC8;}
	.st67{fill:#DEA9B6;}
	.st68{fill:#E6D7CA;}
	.st69{fill:#67462F;}
	.st70{fill:#E2BDA4;}
	.st71{fill:#040506;}
	.st72{fill:#735C4E;}
	.st73{fill:#F0DFD0;}
	.st74{fill:#20391D;}
	.st75{fill:#1F1E1C;}
	.st76{fill:#F09FB5;}
	.st77{fill:#18642D;}
	.st78{fill:#172318;}
	.st79{fill:#C01818;}
	.st80{fill:#171414;}
	.st81{fill:#D36A1A;}
	.st82{fill:#DFE5E4;}
	.st83{fill:#C51618;}
	.st84{fill:#95C11F;}
	.st85{fill:#BA1818;}
	.st86{fill:#FBF18E;}
	.st87{fill:#951B81;}
	.st88{fill:#E71D73;}
	.st89{fill:#6C1F60;}
	.st90{fill:#008D36;}
	.st91{fill:#006633;}
	.st92{fill:#432918;}
	.st93{fill:#F2F2F2;}
	.st94{fill:#1F1717;}
	.st95{fill:#FAD2D3;}
	.st96{fill:#161313;}
	.st97{fill:#FEF6F3;}
	.st98{fill:#E94E1B;}
	.st99{fill:#292928;}
	.st100{fill:#B8C997;}
	.st101{fill:#2BAB92;}
	.st102{fill:#9EB26D;}
	.st103{fill:#13836E;}
	.st104{fill:#31672C;}
	.st105{fill:#407D31;}
	.st106{fill:#FEF1E5;}
	.st107{fill:#523115;}
	.st108{fill:#D1B294;}
	.st109{fill:#734620;}
	.st110{fill:#5B3719;}
	.st111{fill:#94BFDA;}
	.st112{fill:#A7BCD3;}
	.st113{fill:#DADADA;}
	.st114{fill:#8C633A;}
	.st115{fill:#D6A14D;}
	.st116{fill:#E6CEBB;}
	.st117{fill:#A3282E;}
	.st118{fill:#754D24;}
	.st119{fill:#E7E6E6;}
	.st120{fill:#F39323;}
	.st121{fill:#544842;}
	.st122{fill:#D4175B;}
	.st123{fill:#8E3089;}
	.st124{fill:#066938;}
	.st125{fill:#28285B;}
	.st126{fill:#EFDFE8;}
	.st127{fill:#841A25;}
	.st128{fill:#634E42;}
	.st129{fill:#E30613;}
	.st130{fill:#CE953E;}
</style>
<g>
	<g>
		<g>
			<path class="st80" d="M277.2,176.2c33.7-107.7-144.2-118.7-116-4.1c-35,42-28,112.3,16.7,142.8c1,5.7-14.1,18.7-9.8,24.7
				c2.7,3.7,5.2,1.7,9.2,1.7c3.6,0,15.8,10,26.6,4.6c9.2-4.6,0.3-8.6,2.4-11.5c3.2-4.5,3.7-4.9,3.1-7.4c9.3,1.1,18.5,0.3,27.5-2.3
				c-2.9,6.2,0.4,10.5-2.1,13.3c-1.2,1.4-3.3,1.6-0.8,6.6c3,5.9,6.4,2.1,10.3,1c3-0.8,23.9,6.8,29.6-5.5c1.9-4.2-4.3-5.8-3.3-8.5
				c3.7-9.7,1.8-2.8-5.5-22.8C301.1,277,306.7,216.3,277.2,176.2z"/>
		</g>
		<g>
			<g>
				<path class="st80" d="M342.2,180c-4.8-3.8-7.7-0.5-52.6,15.1c5.3,12.3,8.3,26.2,8.3,40.8c0,2.4-0.1,4.7-0.3,7
					C338.7,227.5,353.4,189,342.2,180z"/>
			</g>
			<g>
				<path class="st80" d="M148.1,187c-44.3-15.4-47.3-18.7-52.1-14.9c0,0,0,0,0,0c-11,8.8,2.7,45.6,41.5,61.7
					c0.3-17,4.6-32.9,11.9-46.4C148.9,187.3,148.5,187.1,148.1,187z"/>
			</g>
		</g>
	</g>
	<g>
		<circle class="st19" cx="200.7" cy="140.6" r="1.6"/>
		<circle class="st19" cx="243.3" cy="140.6" r="1.6"/>
		<path class="st19" d="M262.7,129.1c-4-8.9-15.8-20.8-25.5-14.2c-9.9,6.8-14.9,26.9-14.9,26.9s-8.3-21.2-20.6-26.8
			c-7-3.2-12.8,1-17.2,6.2c-8.5,9.9-22.2,40.9-4.8,55.4C202.7,195.7,293.7,197.6,262.7,129.1z M199.6,149.5c-3.7,0-6.8-3-6.8-6.8
			c0-3.8,3-6.8,6.8-6.8c3.8,0,6.8,3,6.8,6.8C206.4,146.5,203.4,149.5,199.6,149.5z M242.2,149.5c-3.8,0-6.8-3-6.8-6.8
			c0-3.8,3-6.8,6.8-6.8c3.8,0,6.8,3,6.8,6.8C249,146.5,245.9,149.5,242.2,149.5z"/>
	</g>
	<g>
		<path class="st19" d="M264.7,226.2c-1.9-5.5-4.7-10.8-8.5-15.3c-0.8-1-1.7-1.9-2.6-2.8c-6.8-6.4-17.1-8.9-26-10.3
			c-10.3-1.7-22.8-2.8-32.9,0.5c-0.7,0.2-1.3,0.5-2,0.8c-4.3,1.8-7.9,5-10.8,8.6c-12.1,15.3-11.9,38.1-7.7,56.2
			c3,13.2,8.7,26.3,18.4,35.9c11.5,11.4,28.6,14,43.3,7.6c5.9-2.6,12-5.4,16.7-9.9c11.5-10.7,14.3-27.9,15.4-42.9
			C268.7,245.1,267.8,235.3,264.7,226.2z"/>
	</g>
	<g>
		<path class="st81" d="M168.1,340.2c0.1,0,0.2,0,0.3,0c0,0,0,0,0,0L168.1,340.2z"/>
	</g>
	<g>
		<g>
			<path class="st81" d="M274.9,342.1c-0.4-0.1-0.7-0.1-1.1-0.2c-0.3,0.6-0.7,1.3-1.4,2c-9,9.9-24.6,2.6-28.2,3.5
				c-3.9,1-7.3,4.9-10.3-1c-2.3,1.7-4.5,3.7-6.3,5.9c-0.9,1.1-1.8,2.3-2.1,3.7s0.2,3.1,1.4,3.8c1.3,0.7,2.8,0.3,4.2-0.1
				c3.5-1,7-2.1,10.5-3.1c0.4-0.1,0.8-0.2,1.3-0.2c1,0.1,1.6,1.1,2.1,2c1.2,2.2,2.7,4.4,4.7,5.9c2,1.5,4.8,2.3,7.2,1.4
				c3.9-1.4,5.3-6.3,5.7-10.4c4.4,3.9,11.1,3.4,17,2.5c2.8-0.4,6.1-1.1,7.3-3.8c0.5-1.2,0.4-2.7,0-3.9
				C285.2,345.3,279.8,343.1,274.9,342.1z"/>
		</g>
		<g>
			<path class="st81" d="M205.6,347.8c-0.5-0.2-1.1-0.4-1.6-0.7c-10.9,5.4-23.1-4.6-26.6-4.6c-2.7,0-5.7,1.5-7.9,0
				c-0.2-0.2-0.4-0.4-0.6-0.6c-4.2,1.3-8.2,3.4-11.6,6c-1.1,0.9-2.3,1.9-2.8,3.2c-0.6,1.3-0.5,3,0.6,4c1.1,1,2.7,0.9,4.2,0.8
				c3.7-0.3,7.3-0.6,11-0.9c0.4,0,0.9-0.1,1.3,0.1c0.9,0.3,1.3,1.4,1.6,2.4c0.8,2.4,1.7,4.8,3.4,6.7c1.7,1.9,4.2,3.2,6.7,2.9
				c4.1-0.6,6.4-5,7.7-9c3.5,4.8,10.2,5.6,16.1,6c2.9,0.2,6.2,0.1,7.9-2.2c0.8-1.1,1-2.5,0.8-3.8C215,353.1,210.1,349.8,205.6,347.8
				z"/>
		</g>
	</g>
	<g>
		<path class="st82" d="M156.2,173.9C156.2,174,156.2,174,156.2,173.9C156.3,173.8,156.2,173.8,156.2,173.9z"/>
	</g>
	<g>
		<g>
			<path class="st82" d="M275.7,106.2c-4.9-15.2-14.6-28.8-27.3-38.3c-1.9-1.4-3.9-2.8-6.3-3.1c-2.3-0.3-5,0.8-5.8,3
				c-0.9,2.6,0.8,6-1.1,7.9c-2.4,2.3-5.9-0.8-8.8-2.3c-3.4-1.7-8-0.7-10.4,2.2c-1,1.2-1.6,2.6-2.7,3.5c-3.6,3.2-9,0.5-13.7-0.5
				c-6.7-1.4-13.8,1.2-19,5.6c-5.2,4.4-6.9,8.7-9.9,14.8c-0.9,2.7-3,4.8-4.3,7.4s-1.7,6,0.5,7.9c2,1.7,5.1,1,7.5-0.1
				c8-4,14-12.7,22.9-12.9c8.1-0.1,15.4,7.2,23.3,5.4c2.5-0.6,4.6-2,7-2.7c3.9-1.2,8.2-0.5,12.1,0.7c9.3,2.7,17.9,7.9,24.7,14.8
				c3.7,3.8,7.3,8.3,12.4,9.4C279.3,121.7,278.1,113.6,275.7,106.2z"/>
		</g>
		<g>
			<path class="st82" d="M132.8,163.5c-6.6,11.9-6.6-3.4-34.4-5.5c-8.8-0.7-2.9,5.2-4.7,6.2c-13.8,7-5.4,17.9-0.6,12.3
				c11-12.8,3.9,12.4,18.1,6.6c14.1-5.9,4.5,7.5,25.6,3.6c5.9-1.1,10.6,8.6,16.3-5.3C157.4,171,138.3,153.6,132.8,163.5z"/>
		</g>
	</g>
	<g>
		<path class="st81" d="M209.9,157.9l0.3,2.1c0,0.2,11.2,25.5,22.9,0.1C237.1,151.5,210.9,148.6,209.9,157.9z"/>
	</g>
</g>
</svg>
