<?xml version="1.0" encoding="utf-8"?>
<!-- Generator: Adobe Illustrator 22.1.0, SVG Export Plug-In . SVG Version: 6.00 Build 0)  -->
<svg version="1.1" xmlns="http://www.w3.org/2000/svg" xmlns:xlink="http://www.w3.org/1999/xlink" x="0px" y="0px"
	 viewBox="0 0 1729.1 2579.5" xml:space="preserve">
<g id="Warstwa_1" style="display:none;">
	
		<image style="display:inline;overflow:visible;opacity:0.26;" width="2550" height="3510" xlink:href="A7287999.jpg"  transform="matrix(-0.24 0 0 -0.24 1171 1710.9277)">
	</image>
</g>
<g id="Warstwa_2">
</g>
<g id="Warstwa_3">
	<path style="fill:#FF0000;" d="M1191.5,292.5l-36.4,10.7l-17.8,11.5l-46.2,54.2l-32,24.9l-124.4,52.4l-38.2-4.4l-1.8-21.3
		l23.1-17.8l7.1-16.9l56-42.6l19.5-25.8l47.1-46.2l10.7-30.2l-41.7,33.8l-126.1,81.7l-50.6,23.1L814,421.3l-119,45.3l7.1,13.3
		l-40,32.9l28.4,48l-32,32l-32,14.2v5.3l-44.4,20.4l-60.4,6.2l-24.9,24.9l-26.6-32.9l0.9-29.3l-25.8,23.1l-18.7,31.1l15.1,24
		l3.6,22.2l-19.5,24.9l10.7,46.2l11.5-26.6l37.3,33.8l-2.7-29.3l8.9-29.3l20.4,38.2l14.2-39.1l50.6,26.6L583,710l73.7,7.1l24-23.1
		l53.3-16.9l14.3,6.1l-80.9,45.4l-104.8,44.4v7.1l-83.5,21.3l-21.3,5.3l-143,43.5l71.1-7.1l-59.5,23.1l-21.3,8.9l-109.3,44.4
		l150.1-27.5l71.9-51.5l26.6-13.3l40.9-15.1l72.8-13.3l40.9-12.4l44.4-34.6l116.7-63.5l28.1,12L718,758l-77.3,37.3l-23.1,32.9
		l-10.7,5.3l-11.5,16.9L528.8,869l4.4,6.2l-46.2-18.7l26.6,38.2h41.7l-9.8,36.4l47.1,81.7l8.9-58.6l-15.1-25.8l-0.9-14.2l12.4,3.6
		L599,893l17.8-12.4l8.9,31.1l43.5-53.3l10.7,22.2l29.3-41.7l10.7-0.9l5.3-22.2l21.3,14.2l48-40l14.2-21.3l60.4-14.2l16.9-16.9
		l-41.7-8l22.2-67.5l2.7,13.3l43.5-54.2l38.2-23.1l2.7,22.2l15.1-21.3l26.6-10.7l39.1,11.5l4.4-35.5l-11.5-22.2l-6.2-27.5l-28.4,16
		v-20.4l-9.8-2.7l85.3-62.2l1.8-8l62.2-65.7l-3.6-6.2L1191.5,292.5z M808,524.6l-43.5,20.4l-45.3,32v-26.6l9.8-1.8l0.9-31.1
		l114.6-54.2L808,524.6z"/>
</g>
<g id="Warstwa_4">
	<polygon style="fill:#FF0000;" points="1035.1,512.8 1048.2,547.1 1073,550.7 1090.8,567.3 1093.2,602.8 1079,615.8 1030.4,637.2 
		1116.9,622.9 1142.9,585 1169,622.9 1163,636 1132.2,672.7 1203.3,630.1 1197.4,671.5 1151.2,702.3 1224.6,690.5 1209.2,721.2 
		1223.4,716.5 1211.6,728.3 1151.2,736.6 1197.4,755.6 1257.8,734.3 1287.4,735.5 1294.5,749.7 1379.8,722.4 1351.3,718.9 
		1327.7,638.3 1336,605.2 1385.7,562.5 1317,592.2 1260.2,595.7 1238.8,577.9 1242.4,532.9 1274.4,473.7 1307.5,418.1 1311.1,325.7 
		1287.4,402.7 1192.6,497.4 1158.3,497.4 1119.2,477.3 1177.3,401.5 1121.6,444.1 1074.2,474.9 1083.7,485.6 1070.7,515.2 	"/>
	<polygon style="fill:#FF0000;" points="1092,720.1 1093.2,759.1 1081.3,787.6 1114.5,805.3 1126.3,824.3 1092,861 1071.8,821.9 
		1038.7,877.6 1010.3,904.8 974.7,882.3 939.2,921.4 907.2,978.2 833.8,981.8 807.7,941.5 801.8,1007.8 743.8,1050.5 748.5,992.5 
		718.9,1062.3 686.9,1106.1 618.3,1108.5 627.7,1123.9 607.6,1142.9 557.9,1184.3 521.1,1228.1 501,1229.3 540.1,1256.6 
		489.2,1295.6 525.9,1313.4 524.7,1351.3 440.6,1428.3 284.3,1459.1 413.4,1468.5 473.8,1450.8 550.8,1415.3 581.5,1384.5 
		632.5,1407 662.1,1378.5 670.4,1407 656.2,1436.6 626.5,1473.3 557.9,1508.8 663.3,1473.3 702.3,1456.7 707.1,1438.9 800.6,1457.9 
		832.6,1461.4 869.3,1448.4 895.4,1435.4 878.8,1397.5 876.4,1345.4 835,1389.2 778.1,1373.8 749.7,1343 753.3,1299.2 739.1,1275.5 
		723.7,1309.8 690.5,1305.1 669.2,1272 676.3,1250.6 692.9,1247.1 707.1,1221 756.8,1255.4 756.8,1203.3 785.2,1174.8 823.1,1153.5 
		799.5,1135.8 788.8,1115.6 880,1118 910.8,1129.8 919.1,1088.4 960.5,1069.4 1003.2,1061.1 1012.6,1045.7 1050.5,1011.4 
		1044.6,1068.2 1020.9,1121.5 912,1222.2 962.9,1210.4 1006.7,1172.5 1047,1135.8 1083.7,1106.1 1112.1,1060 1106.2,1028 
		1105,1006.7 1176.1,972.3 1107.4,971.1 1088.4,953.4 1128.7,928.5 1199.8,910.7 1214,887 1225.8,941.5 1193.8,1142.9 1224.6,1105 
		1264.9,1007.8 1262.5,933.2 1266.1,846.8 1282.7,806.5 1341.9,789.9 1401.1,728.3 1349,761.5 1287.4,766.2 1234.1,778.1 
		1180.8,776.9 1159.5,792.3 	"/>
	<polygon style="fill:#FF0000;" points="908,1344.2 884.6,1371.7 921.8,1431.2 909.4,1461.4 843.3,1481 952.1,1475.7 1040.3,1525.4 
		1100.9,1530.7 1136.7,1591.1 1157.3,1569.8 1202.8,1620.4 1204.2,1665.7 1139.4,1719.9 1147.7,1758.1 1114.6,1793.6 956.2,1862.9 
		987.9,1871.8 956.2,1904.7 949.3,1967.7 989.3,1907.3 1138.1,1841.6 1190.4,1835.4 1190.4,1794.5 1244.1,1840.7 1224.8,1735 
		1268.9,1685.3 1335.1,1692.4 1285.5,1605.3 1260.7,1522.7 1211.1,1513 1198.7,1462.3 1263.4,1364.6 1361.2,1278.5 1240,1351.3 
		1135.3,1457 1081.6,1432.1 1015.5,1371.7 1032,1425.9 957.6,1377.1 950.7,1313.1 916.3,1267.8 858.4,1258 908,1298.9 	"/>
	<polygon style="fill:#FF0000;" points="905.7,1491.9 935,1509.6 938.5,1527.4 922.6,1522.1 879,1553.1 865.7,1600.2 884.4,1667.7 
		845.3,1642 839.1,1604.7 846.2,1548.7 799.1,1599.3 778.7,1682.8 760.9,1634 765.3,1595.8 806.2,1546 738.7,1588.7 710.3,1663.3 
		719.1,1593.1 735.1,1552.3 784.9,1533.6 839.9,1515.8 	"/>
	<polygon style="fill:#FF0000;" points="413.4,1060 480.9,1060 542.2,1083.1 583.9,1145.2 544.4,1166.6 520,1195 497.7,1207.4 
		406.3,1195 349.4,1241.2 399.2,1170.1 468.4,1166.5 492.4,1159.4 434.7,1116.8 413.4,1113.3 348.5,1119.5 424,1088.4 502.2,1115.9 
		480.9,1081.3 	"/>
	<path d="M1742,1520.6"/>
</g>
</svg>
