<svg xmlns="http://www.w3.org/2000/svg" xmlns:svg="http://www.w3.org/2000/svg" viewBox="0 0 350 350">
	<g class="layer">
		<title>Layer 1</title>
		<g id="svg_11">
			<path d="m254.567,191.259c-2.813,6.431 -8.956,10.844 -15.369,13.25c-6.511,2.443 -13.53,3.121 -20.453,3.778c7.461,-3.225 9.829,-12.542 10.553,-20.637c0.724,-8.096 1.15,-17.163 7.09,-22.712c-14.106,3.957 -28.844,5.651 -43.479,4.998c4.84,-5.044 4.813,-12.917 7.598,-19.328c3.136,-7.219 9.692,-12.269 15.985,-16.995c-13.187,-5.289 -26.27,-10.835 -39.241,-16.633c1.231,0.55 14.536,-8.045 16.708,-8.96c5.496,-2.315 11.17,-2.882 16.894,-4.499c-5.621,-2.251 -11.074,-4.923 -16.298,-7.985c-1.293,-0.758 -2.6,-1.563 -3.534,-2.735c-0.482,-0.604 -0.862,-1.301 -1.453,-1.798c-1.466,-1.233 -3.647,-0.85 -5.517,-0.436c-9.169,2.026 -18.133,1.978 -26.705,6.032c-7.979,3.773 -15.209,9.07 -21.576,15.156c-14.336,13.706 -24.72,30.938 -37.239,46.322c-6.44,7.914 -13.501,15.41 -18.698,24.19c-4.988,8.426 -9.455,20.672 -6.195,30.481c3.029,9.118 11.513,19.548 19.529,24.662c14.434,9.21 33.106,5.986 50.152,7.605c7.23,0.687 14.341,2.301 21.548,3.205c19.055,2.389 38.976,-0.397 55.914,-9.446c9.577,-5.116 18.095,-12.28 24.675,-20.925c3.08,-4.046 6.32,-8.697 8.068,-13.512c1.451,-4.001 -0.439,-9.691 1.043,-13.078zm-145.095,-5.276c-0.216,1.858 -2.019,3.345 -3.867,4.203c-3.373,1.565 -8.981,2.704 -12.488,2.311c-0.151,-2.36 2.394,-4.839 4.132,-6.506c1.942,-1.863 4.275,-3.632 6.951,-3.952c2.676,-0.32 5.561,1.457 5.272,3.944zm28.189,40.11c-0.216,1.858 -2.019,3.345 -3.867,4.203c-3.373,1.565 -8.981,2.704 -12.488,2.311c-0.151,-2.36 2.394,-4.839 4.132,-6.506c1.942,-1.863 4.275,-3.632 6.951,-3.952c2.676,-0.32 5.562,1.456 5.272,3.944zm4.928,-32.295c-0.216,1.858 -2.019,3.345 -3.867,4.203c-3.373,1.565 -8.981,2.704 -12.488,2.311c-0.151,-2.36 2.394,-4.839 4.132,-6.506c1.942,-1.863 4.275,-3.632 6.951,-3.952c2.675,-0.32 5.561,1.456 5.272,3.944zm5.029,-37.684c-0.216,1.858 -2.019,3.345 -3.867,4.203c-3.373,1.565 -8.981,2.704 -12.489,2.311c-0.151,-2.36 2.394,-4.839 4.132,-6.506c1.942,-1.863 4.275,-3.632 6.951,-3.952c2.677,-0.319 5.563,1.457 5.273,3.944zm3.314,-31.402c-0.151,-2.36 2.394,-4.839 4.132,-6.506c1.942,-1.863 4.275,-3.632 6.951,-3.952s5.562,1.456 5.272,3.944c-0.216,1.858 -2.019,3.345 -3.867,4.203c-3.373,1.565 -8.981,2.704 -12.488,2.311zm26.337,104.214c-0.216,1.858 -2.019,3.345 -3.867,4.203c-3.373,1.565 -8.981,2.704 -12.488,2.311c-0.151,-2.36 2.394,-4.839 4.132,-6.506c1.942,-1.863 4.274,-3.632 6.951,-3.952s5.561,1.456 5.272,3.944zm1.779,-32.904c-0.216,1.858 -2.019,3.345 -3.867,4.203c-3.373,1.565 -8.981,2.704 -12.488,2.311c-0.151,-2.36 2.394,-4.839 4.132,-6.506c1.942,-1.863 4.274,-3.632 6.951,-3.952s5.561,1.457 5.272,3.944zm7.309,-42.076c-0.216,1.858 -2.019,3.345 -3.867,4.203c-3.373,1.565 -8.981,2.704 -12.488,2.311c-0.151,-2.36 2.394,-4.839 4.132,-6.506c1.942,-1.863 4.275,-3.632 6.951,-3.952c2.676,-0.32 5.561,1.457 5.272,3.944zm21.713,50.713c-0.216,1.858 -2.019,3.345 -3.867,4.203c-3.373,1.565 -8.981,2.704 -12.488,2.311c-0.151,-2.36 2.394,-4.839 4.132,-6.506c1.942,-1.863 4.275,-3.632 6.951,-3.952s5.562,1.457 5.272,3.944z" fill="#F90303" id="svg_12"/>
			<path d="m167.287,118.198c0.289,-2.487 -2.596,-4.264 -5.272,-3.944s-5.009,2.089 -6.951,3.952c-1.738,1.667 -4.284,4.146 -4.132,6.506c3.508,0.393 9.116,-0.746 12.488,-2.311c1.848,-0.858 3.651,-2.345 3.867,-4.203z" fill="#FFFFFF" id="svg_13"/>
			<path d="m181.085,150.003c-2.676,0.32 -5.009,2.089 -6.951,3.952c-1.738,1.668 -4.284,4.146 -4.132,6.506c3.508,0.393 9.116,-0.746 12.488,-2.311c1.848,-0.858 3.651,-2.345 3.867,-4.203c0.289,-2.488 -2.596,-4.265 -5.272,-3.944z" fill="#FFFFFF" id="svg_14"/>
			<path d="m104.2,182.04c-2.676,0.32 -5.009,2.089 -6.951,3.952c-1.738,1.668 -4.284,4.146 -4.132,6.506c3.508,0.393 9.116,-0.746 12.488,-2.311c1.848,-0.858 3.651,-2.345 3.867,-4.203c0.289,-2.488 -2.596,-4.265 -5.272,-3.944z" fill="#FFFFFF" id="svg_15"/>
			<path d="m137.316,189.854c-2.676,0.32 -5.009,2.089 -6.951,3.952c-1.738,1.667 -4.284,4.146 -4.132,6.506c3.508,0.393 9.116,-0.746 12.488,-2.311c1.848,-0.858 3.651,-2.345 3.867,-4.203c0.29,-2.488 -2.596,-4.264 -5.272,-3.944z" fill="#FFFFFF" id="svg_16"/>
			<path d="m142.346,152.171c-2.676,0.32 -5.009,2.089 -6.951,3.952c-1.738,1.667 -4.284,4.146 -4.132,6.506c3.508,0.393 9.116,-0.746 12.489,-2.311c1.848,-0.858 3.651,-2.345 3.867,-4.203c0.289,-2.488 -2.597,-4.264 -5.273,-3.944z" fill="#FFFFFF" id="svg_17"/>
			<path d="m173.775,192.079c-2.676,0.32 -5.009,2.089 -6.951,3.952c-1.738,1.668 -4.284,4.146 -4.132,6.506c3.508,0.393 9.116,-0.746 12.488,-2.311c1.848,-0.858 3.651,-2.345 3.867,-4.203c0.29,-2.488 -2.595,-4.265 -5.272,-3.944z" fill="#FFFFFF" id="svg_18"/>
			<path d="m132.389,222.149c-2.676,0.32 -5.009,2.089 -6.951,3.952c-1.738,1.668 -4.284,4.146 -4.132,6.506c3.508,0.393 9.116,-0.746 12.488,-2.311c1.848,-0.858 3.651,-2.345 3.867,-4.203c0.29,-2.488 -2.596,-4.264 -5.272,-3.944z" fill="#FFFFFF" id="svg_19"/>
			<path d="m171.997,224.982c-2.676,0.32 -5.009,2.089 -6.951,3.952c-1.738,1.668 -4.284,4.146 -4.132,6.506c3.508,0.393 9.116,-0.746 12.488,-2.311c1.848,-0.858 3.651,-2.345 3.867,-4.203c0.289,-2.488 -2.596,-4.264 -5.272,-3.944z" fill="#FFFFFF" id="svg_20"/>
			<path d="m202.798,200.716c-2.676,0.32 -5.009,2.089 -6.951,3.952c-1.738,1.667 -4.284,4.146 -4.132,6.506c3.508,0.393 9.116,-0.746 12.488,-2.311c1.848,-0.858 3.651,-2.345 3.867,-4.203c0.29,-2.488 -2.596,-4.264 -5.272,-3.944z" fill="#FFFFFF" id="svg_21"/>
		</g>
		<path d="m235.391,84.337c-0.182,-0.95 -0.506,-1.852 -1.062,-2.669c-1.855,1.474 -3.549,3.149 -5.044,4.987c-0.747,0.918 -1.453,1.894 -1.855,3.007c-0.901,2.488 -0.168,5.249 -1.11,7.703c-5.316,-6.028 -9.552,-9.128 -17.516,-11.631c-6.807,-2.14 -14.022,-4.018 -19.303,-8.816c-0.866,2.954 0.186,6.165 1.83,8.767c3.297,5.218 8.767,8.657 14.318,11.357c7.158,3.483 15.291,6.487 19.349,13.336c-5.342,-3.089 -12.108,-2.033 -17.928,0.018c-2.542,0.896 -14.639,3.599 -12.718,7.263c0.496,0.946 6.903,2.337 8.148,2.819c3.129,1.211 6.226,2.507 9.285,3.886c5.883,2.651 11.628,5.609 17.204,8.858c-14.167,5.143 -20.626,14.552 -25.609,28.318c-0.215,0.595 -0.431,1.254 -0.204,1.845c0.48,1.245 2.28,1.074 3.544,0.649c2.312,-0.779 4.594,-1.648 6.839,-2.603c1.069,-0.455 2.14,-0.933 3.277,-1.173c1.053,-0.222 2.137,-0.233 3.213,-0.286c3.535,-0.174 18.454,-1.958 19.857,-5.801c-1.891,5.182 -0.045,10.87 0.643,16.343c0.667,5.304 0.147,10.737 -1.407,15.847c-0.811,2.667 -1.903,5.249 -3.259,7.685c-0.617,1.109 -3.823,4.333 -2.634,5.661c1.911,2.135 9.907,-4.989 11.251,-6.168c4.362,-3.827 7.834,-8.876 8.924,-14.575c0.238,5.102 2.523,10.081 6.238,13.587c1.718,1.622 3.729,2.944 5.232,4.767c2.829,3.431 3.474,8.109 4.011,12.524c3.517,-9.882 5.26,-18.173 0.97,-28.284c-2.413,-5.688 -7.789,-9.842 -10.023,-15.311c-2.059,-5.04 -0.368,-11.543 -1.118,-16.838c-0.449,-3.163 -4.924,-10.589 -1.551,-12.563c6.931,-4.055 13.495,-8.739 19.583,-13.976c1.142,-0.982 2.348,-2.138 2.471,-3.64c0.187,-2.294 -2.153,-3.892 -4.187,-4.97c-0.557,-0.295 -1.16,-0.599 -1.786,-0.524c-0.433,0.052 -0.822,0.28 -1.196,0.503c-5.021,2.987 -10.104,5.868 -15.243,8.646c-5.282,2.856 -6.811,3.763 -10.2,-1.473c-3.171,-4.895 -7.72,-6.64 -8.347,-13.139c-0.563,-5.831 -2.7,-11.612 -2.736,-17.497c-0.018,-2.126 0.242,-4.394 -0.151,-6.439z" fill="#3FC600" id="svg_34"/>
	</g>
</svg>