<svg width="350" height="350" xmlns="http://www.w3.org/2000/svg" xmlns:svg="http://www.w3.org/2000/svg">
	<g class="layer">
		<title>Layer 1</title>
		<path d="m295.691,128.362c-18.396,27.34 -52.956,67.256 -107.977,89.152c-59.836,23.812 -112.701,15.645 -140.978,7.71l-12.236,29.571c0,0 73.652,35.462 162.762,0s124.572,-118.207 124.572,-118.207l-26.143,-8.226z" fill="#3FC600" id="svg_10"/>
		<g id="svg_22">
			<path d="m118.407,61.513l-65.722,152.819c0,0 52.094,23.574 126.39,-1.364s103.658,-88.2 103.658,-88.2l-164.326,-63.255zm-31.86,139.818c-0.606,2.97 -3.523,5.42 -6.076,4.231c-1.906,-0.888 -2.856,-3.34 -3.117,-5.615c-0.477,-4.154 0.293,-10.543 1.954,-14.148c2.572,0.674 4.317,4.268 5.481,6.714c1.302,2.733 2.364,5.849 1.758,8.818zm16.722,-68.216c-0.477,-4.154 0.293,-10.543 1.954,-14.147c2.572,0.674 4.317,4.268 5.481,6.714c1.301,2.732 2.363,5.848 1.757,8.818c-0.606,2.97 -3.523,5.42 -6.076,4.231c-1.905,-0.889 -2.855,-3.34 -3.116,-5.616zm8.275,51.083c-2.009,-0.623 -3.28,-2.924 -3.846,-5.143c-1.033,-4.052 -1.132,-10.486 0.027,-14.282c2.64,0.321 4.853,3.647 6.337,5.913c1.658,2.532 3.13,5.476 2.931,8.5c-0.2,3.024 -2.76,5.846 -5.449,5.012zm17.731,-81.38c-2.009,-0.623 -3.28,-2.924 -3.846,-5.143c-1.033,-4.052 -1.132,-10.486 0.027,-14.282c2.64,0.321 4.853,3.647 6.337,5.913c1.658,2.532 3.13,5.476 2.931,8.5s-2.76,5.845 -5.449,5.012zm12.284,101.696c-0.606,2.97 -3.523,5.42 -6.076,4.231c-1.906,-0.888 -2.856,-3.34 -3.117,-5.615c-0.477,-4.154 0.293,-10.543 1.954,-14.147c2.572,0.674 4.317,4.268 5.481,6.714c1.302,2.731 2.364,5.847 1.758,8.817zm10.902,-49.413c-2.009,-0.623 -3.28,-2.924 -3.846,-5.143c-1.033,-4.052 -1.132,-10.486 0.027,-14.282c2.64,0.321 4.853,3.647 6.337,5.913c1.658,2.532 3.13,5.476 2.931,8.5s-2.759,5.846 -5.449,5.012zm15.332,-41.379c-2.078,-0.322 -3.673,-2.412 -4.557,-4.525c-1.615,-3.857 -2.655,-10.207 -2.063,-14.132c2.658,-0.069 5.335,2.897 7.134,4.922c2.01,2.262 3.898,4.958 4.143,7.979c0.245,3.021 -1.874,6.187 -4.657,5.756zm27.279,72.742c-2.078,-0.322 -3.673,-2.412 -4.557,-4.525c-1.615,-3.857 -2.655,-10.207 -2.063,-14.132c2.658,-0.069 5.335,2.897 7.134,4.922c2.01,2.262 3.898,4.958 4.143,7.979c0.245,3.021 -1.875,6.188 -4.657,5.756zm13.31,-50.458c-2.009,-0.623 -3.28,-2.924 -3.846,-5.144c-1.033,-4.052 -1.132,-10.486 0.027,-14.282c2.64,0.321 4.853,3.647 6.337,5.913c1.658,2.532 3.13,5.476 2.931,8.5c-0.199,3.025 -2.759,5.847 -5.449,5.013zm48.521,6.358c-2.078,-0.322 -3.673,-2.412 -4.557,-4.525c-1.615,-3.857 -2.655,-10.207 -2.063,-14.132c2.658,-0.069 5.335,2.897 7.134,4.922c2.01,2.262 3.898,4.958 4.143,7.979c0.245,3.021 -1.874,6.188 -4.657,5.756z" fill="#F90303" id="svg_23"/>
			<path d="m134.724,97.805c0.2,-3.024 -1.273,-5.968 -2.931,-8.5c-1.484,-2.266 -3.697,-5.592 -6.337,-5.913c-1.16,3.796 -1.06,10.23 -0.027,14.282c0.566,2.22 1.837,4.521 3.846,5.143c2.689,0.834 5.249,-1.987 5.449,-5.012z" fill="#FFFFFF" id="svg_24"/>
			<path d="m148.643,135.676c-1.159,3.796 -1.06,10.23 -0.027,14.282c0.566,2.22 1.837,4.521 3.846,5.143c2.69,0.834 5.25,-1.988 5.449,-5.012s-1.273,-5.968 -2.931,-8.5c-1.484,-2.266 -3.697,-5.592 -6.337,-5.913z" fill="#FFFFFF" id="svg_25"/>
			<path d="m204.564,116.581c-1.16,3.796 -1.06,10.23 -0.027,14.282c0.566,2.22 1.837,4.521 3.846,5.144c2.69,0.834 5.25,-1.988 5.449,-5.012c0.2,-3.024 -1.273,-5.968 -2.931,-8.5c-1.484,-2.267 -3.697,-5.593 -6.337,-5.914z" fill="#FFFFFF" id="svg_26"/>
			<path d="m107.725,164.773c-1.159,3.796 -1.06,10.23 -0.027,14.282c0.566,2.22 1.837,4.521 3.846,5.143c2.69,0.834 5.25,-1.988 5.449,-5.012c0.2,-3.024 -1.273,-5.968 -2.931,-8.5c-1.484,-2.266 -3.697,-5.592 -6.337,-5.913z" fill="#FFFFFF" id="svg_27"/>
			<path d="m112.462,134.499c0.606,-2.97 -0.456,-6.085 -1.757,-8.818c-1.164,-2.446 -2.909,-6.04 -5.481,-6.714c-1.661,3.605 -2.431,9.993 -1.954,14.147c0.261,2.276 1.21,4.727 3.117,5.615c2.552,1.191 5.469,-1.26 6.075,-4.23z" fill="#FFFFFF" id="svg_28"/>
			<path d="m134.321,188.982c-1.661,3.605 -2.431,9.993 -1.954,14.147c0.261,2.276 1.21,4.727 3.117,5.615c2.553,1.189 5.47,-1.261 6.076,-4.231c0.606,-2.97 -0.456,-6.085 -1.757,-8.818c-1.165,-2.445 -2.91,-6.039 -5.482,-6.713z" fill="#FFFFFF" id="svg_29"/>
			<path d="m79.309,185.8c-1.661,3.605 -2.431,9.994 -1.954,14.148c0.261,2.276 1.21,4.727 3.117,5.615c2.553,1.189 5.47,-1.261 6.076,-4.231c0.606,-2.97 -0.456,-6.085 -1.757,-8.818c-1.165,-2.446 -2.91,-6.04 -5.482,-6.714z" fill="#FFFFFF" id="svg_30"/>
			<path d="m168.307,99.986c-1.799,-2.025 -4.476,-4.991 -7.134,-4.922c-0.591,3.925 0.449,10.275 2.063,14.132c0.885,2.113 2.479,4.203 4.557,4.525c2.783,0.431 4.902,-2.735 4.657,-5.756c-0.245,-3.02 -2.133,-5.717 -4.143,-7.979z" fill="#FFFFFF" id="svg_31"/>
			<path d="m195.585,172.729c-1.799,-2.025 -4.476,-4.991 -7.134,-4.922c-0.591,3.925 0.449,10.275 2.063,14.132c0.885,2.113 2.479,4.203 4.557,4.525c2.783,0.431 4.902,-2.735 4.657,-5.756c-0.245,-3.02 -2.133,-5.717 -4.143,-7.979z" fill="#FFFFFF" id="svg_32"/>
			<path d="m261.56,136.608c-0.245,-3.021 -2.133,-5.718 -4.143,-7.979c-1.799,-2.025 -4.476,-4.991 -7.134,-4.922c-0.591,3.925 0.449,10.275 2.063,14.132c0.885,2.113 2.479,4.203 4.557,4.525c2.783,0.432 4.902,-2.735 4.657,-5.756z" fill="#FFFFFF" id="svg_33"/>
		</g>
	</g>
</svg>