<svg xmlns="http://www.w3.org/2000/svg" xmlns:svg="http://www.w3.org/2000/svg" viewBox="-10 0 350 350">
	<g class="layer">
		<title>Layer 1</title>
		<path d="m166.925,97.787c0.683,9.737 1.288,18.377 1.926,27.47c-12.119,-1.297 -22.929,-5.947 -32.42,-13.841c9.31,13.363 23.421,17.113 38.249,17.118c14.307,0.005 27.231,-5.054 36.041,-17.55c-9.3,8.857 -20.426,13.585 -33.421,15.06c-3.573,-8.651 -3.163,-17.356 -0.908,-26.082c0.24,-0.929 1.875,-2.127 2.873,-2.137c22.381,-0.228 44.684,0.617 64.896,11.801c18.248,10.096 27.951,26.755 33.037,46.304c6.062,23.299 5.612,46.719 0.647,70.224c-4.248,20.11 -12.556,38.314 -25.444,54.165c-6.17,7.589 -13.145,14.991 -21.113,20.522c-8.463,5.875 -19.066,5.754 -29.275,4.603c-7.126,-0.803 -14.277,-2.328 -21.381,-2.146c-9.968,0.256 -20.086,0.931 -29.813,2.979c-17.303,3.642 -32.336,1.252 -45.448,-11.543c-14.43,-14.08 -25.195,-30.451 -33.012,-48.887c-9.228,-21.766 -15.24,-44.291 -15.038,-68.112c0.186,-21.896 5.581,-42.156 21.483,-58.111c7.239,-7.263 16.065,-12.567 26.086,-15.759c13.705,-4.366 27.709,-5.254 41.947,-5.039c6.756,0.102 13.525,-0.673 20.088,-1.039z" fill="#F90303" id="svg_1"/>
		<g id="svg_2">
			<path d="m92.221,74.287c12.909,-5.343 25.131,-10.44 37.401,-15.417c1.102,-0.447 2.799,-0.621 3.741,-0.083c7.438,4.249 14.761,8.701 21.841,13.985c-12.688,0.071 -20.028,9.115 -28.899,15.104c-8.799,5.94 -17.42,5.193 -24.556,-2.611c-3.095,-3.384 -6.02,-6.925 -9.528,-10.978z" fill="#3FC600" id="svg_3"/>
			<path d="m167.664,94.746c-15.369,0.371 -30.942,3.749 -47.241,-0.37c8.228,-5.399 15.653,-11.047 23.774,-15.393c9.096,-4.867 14.972,-2.501 19.96,6.471c0.482,0.867 1.006,1.712 1.51,2.567c0.434,-0.193 0.869,-0.386 1.303,-0.579c-1.865,-3.695 -3.563,-7.487 -5.642,-11.057c-2.06,-3.537 -5.363,-6.208 -4.873,-11.182c0.251,-2.54 -1.824,-5.309 -2.949,-8.236c11.312,9.676 19.386,27.893 14.158,37.779z" fill="#3FC600" id="svg_4"/>
			<path d="m172.19,125.673c-0.671,-4.043 -1.602,-8.062 -1.968,-12.133c-1.715,-19.092 4.285,-35.708 16.886,-49.912c5.664,-6.384 13.148,-7.693 19.584,-3.96c-0.618,0.43 -1.06,0.983 -1.575,1.062c-13.942,2.123 -21.812,10.985 -26.41,23.583c-4.85,13.287 -8.586,26.692 -4.471,41.078c-0.681,0.094 -1.364,0.188 -2.046,0.282z" fill="#3FC600" id="svg_5"/>
			<path d="m137.344,57.658c2.481,-5.357 -0.872,-13.57 -7.45,-18.211c-1.512,-1.067 -3.057,-2.089 -5.265,-3.595c10.473,2.111 26.564,17.534 29.661,31.478c-5.473,-3.196 -11.179,-6.529 -16.9,-9.833c-0.015,0.031 -0.046,0.161 -0.046,0.161z" fill="#3FC600" id="svg_6"/>
			<g id="svg_7">
				<path d="m137.375,57.528c-0.025,-0.008 -0.049,-0.016 -0.074,-0.024c0.013,0.053 0.03,0.102 0.042,0.155l0.032,-0.131z" fill="#3FC600" id="svg_8"/>
				<path d="m65.301,31.169c12.288,8.962 27.19,11.247 41.093,16.06c10.259,3.551 20.602,6.859 30.908,10.275c-3.553,-14.861 -14.608,-23.404 -27.554,-28.157c-9.503,-3.488 -20.479,-3.687 -30.828,-3.899c-7.048,-0.145 -14.148,2.219 -22.102,3.616c4.517,4.997 8.073,8.478 11.101,12.37c6.91,8.883 13.843,17.775 20.169,27.071c2.299,3.379 4.496,3.274 7.245,2.012c10.383,-4.768 20.685,-9.713 31.238,-14.696c-4.139,-1.507 -8.189,-3.423 -12.454,-4.443c-9.173,-2.194 -18.334,-5.532 -27.74,0.011c-2.275,1.341 -5.821,0.525 -8.782,0.701c0.02,-0.313 0.04,-0.625 0.059,-0.938c4.746,-1.485 9.493,-2.97 14.239,-4.455c-10.169,-4.828 -20.711,-7.734 -28.496,-15.831c0.762,-0.167 1.419,-0.05 1.904,0.303zm47.78,17.331c-8.24,-9.28 -13.235,-20.873 -27.661,-18.525c9.354,-6.009 24.487,4.541 27.661,18.525z" fill="#3FC600" id="svg_9"/>
			</g>
		</g>
	</g>
</svg>