<svg xmlns="http://www.w3.org/2000/svg" xmlns:svg="http://www.w3.org/2000/svg" viewBox="0 0 350 350">
	<g class="layer">
		<title>Layer 1</title>
		<g id="svg_35">
			<path d="m206.568,184.081c-4.103,-2.097 -11.027,1.173 -14.215,5.863c-2.856,4.201 1.258,6.508 2.401,9.72c4.443,-1.562 8.091,-3.219 11.918,-4.069c3.031,-0.673 5.575,-2.036 4.857,-4.958c-0.613,-2.497 -2.712,-5.407 -4.961,-6.556z" fill="none" id="svg_36"/>
			<path d="m130.47,183.742c-4.386,-2.397 -8.344,-1.531 -11.75,1.864c-6.434,6.411 -11.514,13.458 -9.27,23.677c7.16,-8.248 14.321,-16.495 21.503,-24.769c-0.146,-0.243 -0.242,-0.64 -0.483,-0.772z" fill="none" id="svg_37"/>
			<path d="m256.379,189.802c-6.278,-7.028 -15.699,-9.732 -24.721,-7.127c-1.827,0.528 -3.611,1.251 -5.497,1.495c-5.204,0.674 -6.77,-2.328 -10.339,-4.769c-3.3,-2.258 -7.179,-3.612 -11.251,-3.981c-3.717,-0.336 -7.357,0.197 -10.758,1.763c-1.314,0.605 -7.368,6.123 -7.956,6.013c-5.405,-1.012 -10.411,-2.839 -15.988,-2.515c-3.627,0.21 -7.2,1.229 -10.831,1.1c-9.452,-0.337 -13.776,-9.016 -23.568,-9.616c-8.033,-0.492 -17.041,1.749 -23.06,7.318c-19.169,17.739 -19.474,45.799 -1.886,66.516c19.718,23.225 48.087,25.838 71.968,7.017c3.82,-3.011 6.15,-2.876 9.749,0.245c8.924,7.741 19.562,11.64 31.377,10.366c20.131,-2.171 36.725,-17.277 40.681,-37.201c2.606,-13.129 1.688,-25.867 -7.92,-36.624zm-146.93,19.48c-2.243,-10.219 2.837,-17.266 9.27,-23.677c3.407,-3.395 7.364,-4.261 11.75,-1.864c0.241,0.132 0.338,0.53 0.483,0.772c-7.182,8.274 -14.343,16.522 -21.503,24.769zm97.223,-13.687c-3.827,0.85 -7.475,2.508 -11.918,4.069c-1.143,-3.213 -5.256,-5.52 -2.401,-9.72c3.188,-4.69 10.112,-7.961 14.215,-5.863c2.248,1.149 4.348,4.059 4.961,6.556c0.718,2.922 -1.826,4.285 -4.857,4.958z" fill="#F90303" id="svg_38"/>
		</g>
		<path d="m220.715,171.609c1.42,0 2.841,0 4.261,0c1.355,0 4.975,0.766 4.122,-1.598c-2.877,-7.973 -3.316,-16.536 -6.18,-24.472c-3.599,-9.97 -8.817,-19.36 -13.409,-28.966c-3.327,-6.957 -6.821,-13.994 -5.357,-21.924c0.614,-3.326 2.285,-7.159 4.746,-9.305c6.182,-5.391 6.637,-6.314 1.431,-13.698c-8.662,2.843 -15.919,8.074 -22.453,14.29c-2.684,2.553 -4.769,3.103 -8.21,1.328c-5.452,-2.812 -11.162,-5.221 -16.953,-7.258c-12.624,-4.44 -25.712,-6.811 -38.618,-2.208c-7.533,2.687 -15.18,6.499 -21.227,11.63c-15.869,13.465 -26.289,31.365 -37.821,49.448c17.656,4.247 34.196,0.767 50.651,-1.955c16.699,-2.762 32.801,-7.726 47.025,-15.84c-1.389,0.792 -1.944,11.327 -2.262,13.181c-0.889,5.181 -1.778,10.362 -2.667,15.542c-0.769,4.484 -4.287,14.297 -3.537,20.804l10.428,0c0.512,-4.461 -0.065,-10.415 0.298,-13.686c0.757,-6.814 1.882,-13.601 3.664,-20.226c3.621,-13.457 10.031,-25.984 19.621,-36.173c2.031,-2.158 4.329,-4.064 6.987,-6.537c3.61,19.848 16.025,35.393 21.779,53.648c1.87,5.935 2.548,12.124 3.49,18.249c0.244,1.588 0.156,3.652 0.191,5.726z" fill="#3FC600" id="svg_39"/>
	</g>
</svg>