<?xml version="1.0" encoding="utf-8"?>
<!-- Generator: Adobe Illustrator 22.0.0, SVG Export Plug-In . SVG Version: 6.00 Build 0)  -->
<svg version="1.1" id="Calque_1" xmlns="http://www.w3.org/2000/svg" xmlns:xlink="http://www.w3.org/1999/xlink" x="0px" y="0px"
	 viewBox="0 0 432 432" style="enable-background:new 0 0 432 432;" xml:space="preserve">
<style type="text/css">
	.st0{fill:#EFCB92;}
	.st1{fill:#C6E5E5;}
	.st2{fill:#1D1D1C;}
	.st3{fill:#221C1E;}
	.st4{fill:#BE1622;}
	.st5{fill:#BA874D;}
	.st6{fill:#A01A18;}
	.st7{fill:#F3EEEC;}
	.st8{fill:#8F1915;}
	.st9{fill:#7A170F;}
	.st10{fill:#F4DF87;}
	.st11{fill:#456829;}
	.st12{fill:#38491D;}
	.st13{fill:#E1C85C;}
	.st14{fill:#AB3117;}
	.st15{fill:#77160F;}
	.st16{fill:#734525;}
	.st17{fill:#F7F4E6;}
	.st18{fill:#472713;}
	.st19{fill:#FFFFFF;}
	.st20{fill:#371F11;}
	.st21{fill:#B0AEAE;}
	.st22{fill:#B3B2B2;}
	.st23{fill:#DCD9D8;}
	.st24{fill:#946859;}
	.st25{fill:#801E1E;}
	.st26{fill:#603A13;}
	.st27{fill:#CD904F;}
	.st28{fill:#663D11;}
	.st29{fill:#3B211E;}
	.st30{fill:#86563E;}
	.st31{fill:#66413A;}
	.st32{fill:none;}
	.st33{fill:#D1AF97;}
	.st34{fill:#A91917;}
	.st35{fill:#362E2E;}
	.st36{fill:#614444;}
	.st37{fill:#FEF8F8;}
	.st38{fill:#9E9994;}
	.st39{fill:#807D7A;}
	.st40{fill:#C57917;}
	.st41{fill:#985119;}
	.st42{fill:#6E3E13;}
	.st43{fill:#EC670B;}
	.st44{fill:#FAB40E;}
	.st45{fill:#FFD802;}
	.st46{fill:#595959;}
	.st47{fill:#1D1F1F;}
	.st48{fill:#9FC1BD;}
	.st49{fill:#558E8B;}
	.st50{fill:#AA794B;}
	.st51{fill:#CCCECE;}
	.st52{fill:#70A09D;}
	.st53{fill:#DDC915;}
	.st54{fill:#FBEA2E;}
	.st55{fill:#020203;}
	.st56{fill:#1A1A19;}
	.st57{fill:#E2B774;}
	.st58{fill:#CE9E5F;}
	.st59{fill:#E3DBD0;}
	.st60{fill:#F7F2EB;}
	.st61{fill:#FFFFFE;}
	.st62{fill:#F3BED1;}
	.st63{fill:#E2C39D;}
	.st64{fill:#946342;}
	.st65{fill:#D11320;}
	.st66{fill:#EDBFC8;}
	.st67{fill:#DEA9B6;}
	.st68{fill:#E6D7CA;}
	.st69{fill:#67462F;}
	.st70{fill:#E2BDA4;}
	.st71{fill:#040506;}
	.st72{fill:#735C4E;}
	.st73{fill:#F0DFD0;}
	.st74{fill:#20391D;}
	.st75{fill:#1F1E1C;}
	.st76{fill:#F09FB5;}
	.st77{fill:#18642D;}
	.st78{fill:#172318;}
	.st79{fill:#C01818;}
	.st80{fill:#171414;}
	.st81{fill:#D36A1A;}
	.st82{fill:#DFE5E4;}
	.st83{fill:#C51618;}
	.st84{fill:#95C11F;}
	.st85{fill:#BA1818;}
	.st86{fill:#FBF18E;}
	.st87{fill:#951B81;}
	.st88{fill:#E71D73;}
	.st89{fill:#6C1F60;}
	.st90{fill:#008D36;}
	.st91{fill:#006633;}
	.st92{fill:#432918;}
	.st93{fill:#F2F2F2;}
	.st94{fill:#1F1717;}
	.st95{fill:#FAD2D3;}
	.st96{fill:#161313;}
	.st97{fill:#FEF6F3;}
	.st98{fill:#E94E1B;}
	.st99{fill:#292928;}
	.st100{fill:#B8C997;}
	.st101{fill:#2BAB92;}
	.st102{fill:#9EB26D;}
	.st103{fill:#13836E;}
	.st104{fill:#31672C;}
	.st105{fill:#407D31;}
	.st106{fill:#FEF1E5;}
	.st107{fill:#523115;}
	.st108{fill:#D1B294;}
	.st109{fill:#734620;}
	.st110{fill:#5B3719;}
	.st111{fill:#94BFDA;}
	.st112{fill:#A7BCD3;}
	.st113{fill:#DADADA;}
	.st114{fill:#8C633A;}
	.st115{fill:#D6A14D;}
	.st116{fill:#E6CEBB;}
	.st117{fill:#A3282E;}
	.st118{fill:#754D24;}
	.st119{fill:#E7E6E6;}
	.st120{fill:#F39323;}
	.st121{fill:#544842;}
	.st122{fill:#D4175B;}
	.st123{fill:#8E3089;}
	.st124{fill:#066938;}
	.st125{fill:#28285B;}
	.st126{fill:#EFDFE8;}
	.st127{fill:#841A25;}
	.st128{fill:#634E42;}
	.st129{fill:#E30613;}
	.st130{fill:#CE953E;}
</style>
<g>
	<path class="st59" d="M296,210.4c-0.2,0.1-0.4,0.2-0.6,0.2c-1.8,0.4-7.4-1.5-9.5-3.8c-3-3.4-1.7-7.8-2.4-9.3
		c-0.5-1-1.5-1.4-2.6-1.6c-10.2,8.4-20,17.3-29.4,26.6c-4.2-10.5-10.2-18.6-17.1-24.2c2-1.8,4-3.8,5.7-6.2
		c15.7-2.8,21.4-22.4,9.6-33.2c-0.4-7.4-2.4-14.3-5.5-20.3c7.2-18,11.3-69.5-10.5-69.5c-17.5,0-17.3,31.4-15.3,48.9
		c-6-1.2-11.9-0.6-17.4,1.4c1.8-26.1-4.9-54.6-15.8-54.6c-15.9,0-22.3,59.1-8.8,84c-0.7,2.6-1.2,5.3-1.5,8.1
		c-16.1,10.2-9.2,34.9,9.6,35.5c1.3,1.7,2.7,3.2,4.1,4.6c-2.9,2.1-5.6,4.7-8.2,7.7c-15.3-10.4-24.2-18.6-29.4-25.1
		c-0.9,0.6-2.1,1.1-3.6,1.5c-6.6,1.9-10.8,5-14.1,7.4c8.1,8,19.2,20.3,34.7,39.1c-2.6,8.1-4.1,17-4.1,26.4c0,21.4,7.5,40.3,19,52.1
		c0.2,3.4,0.3,6.5,0.4,9.3c2.4,0.6,5.3,2.7,5.7,5.4c3-4.2,7,0.7,7.3,0.8c0.1,0,5.3-2.8,7.5,0.2c0.2-1.2,0.3-2.4,0.5-3.7
		c4.8,0.9,9.4,0.8,14.3-0.3c0.2,1.7,0.4,3.3,0.6,4.9c1.8-4.3,8.1-0.9,8.6-1.7c1.4-2.2,5.1-2.4,6.6-0.2c0.4-2.5,2.8-4.5,5-5.3
		c0.2-3.3,0.4-7,0.6-11.2c13.6-15.2,19-38,17-59.1C269.9,237.3,283.6,221.7,296,210.4z"/>
	<path class="st60" d="M174.9,253.6c0,60.2,72,60.2,72,0C246.9,193.4,174.9,193.4,174.9,253.6z"/>
	<g>
		<path class="st61" d="M232.4,90.7c-12.5,0-9.5,47.7,0,47.7C242.2,138.4,248.9,90.7,232.4,90.7z"/>
		<path class="st61" d="M183.8,84.7c-13.1,0-13.1,55.9,0,55.9C196.9,140.6,196.9,84.7,183.8,84.7z"/>
	</g>
	<g>
		<path class="st19" d="M217,181.6c-0.9,0.2-1.7,0.2-2.4,0c-0.9-0.3-1.5-0.9-1.8-1.5c-0.7,1-1.6,1.6-2.6,1.9
			c-0.4,0.1-0.8,0.1-1.3,0.1c-0.3,0-0.6,0-0.9-0.1l-0.4,6.1h5.1v-7.8l0.6,7.8h4.5L217,181.6z"/>
		<path class="st55" d="M218.7,179.8c-1.5,0.9-2.8,1.2-3.8,0.8c-1.2-0.4-1.7-1.7-1.7-1.7l-0.3-0.9c-0.1,0-0.1,0-0.2,0l-0.4,0.8
			c-0.6,1.1-1.4,1.8-2.5,2.1c-2.3,0.6-5.1-1.2-5.1-1.2l-0.5,0.8c0.1,0.1,1.7,1.1,3.7,1.4c0.3,0,0.6,0.1,0.9,0.1c0.4,0,0.8,0,1.3-0.1
			c1.1-0.3,2-0.9,2.6-1.9c0.3,0.5,0.9,1.1,1.8,1.5c0.7,0.3,1.5,0.2,2.4,0c0.7-0.2,1.4-0.5,2.2-1L218.7,179.8z"/>
		<path class="st62" d="M213.1,171.5c-11.2,0-11.2,7-0.4,6.6c0.1,0,0.1,0,0.2,0c0.1,0,0.1,0,0.2,0
			C225.2,177.4,219.3,171.6,213.1,171.5z"/>
	</g>
	<path class="st32" d="M124.4,179.9c3.6-1.3,11.1-5.2,21.1-9.9C135.7,174.6,128.1,178.5,124.4,179.9
		C124.4,179.9,124.4,179.9,124.4,179.9z"/>
	<g>
		<polygon class="st63" points="286.9,190.2 286.9,190.2 286.9,190.2 		"/>
	</g>
	<g>
		<path class="st60" d="M187.2,334.3c1.1,0.2,2.1,0.3,3.2,0.2C189.4,334.5,188.3,334.5,187.2,334.3z"/>
	</g>
	<g>
		<path class="st60" d="M192.1,334.2c-0.5,0.1-1,0.2-1.5,0.2C191.1,334.4,191.6,334.3,192.1,334.2z"/>
	</g>
	<g>
		<path class="st60" d="M196.6,332.2c0.2,2.7,2,4.2,4.1,4.5C198.6,336.3,196.7,334.5,196.6,332.2z"/>
	</g>
	<g>
		<path class="st60" d="M196.6,332.2c-0.4,0.3-0.8,0.6-1.2,0.8C195.8,332.7,196.2,332.5,196.6,332.2z"/>
	</g>
	<g>
		<path class="st60" d="M193.6,333.8c-0.4,0.2-0.9,0.3-1.3,0.4C192.7,334.1,193.2,334,193.6,333.8z"/>
	</g>
	<g>
		<path class="st60" d="M201.3,336.7C201.3,336.7,201.3,336.7,201.3,336.7C201.3,336.7,201.3,336.7,201.3,336.7z"/>
	</g>
	<g>
		<path class="st60" d="M195.1,333.1c-0.4,0.2-0.9,0.4-1.3,0.6C194.2,333.6,194.7,333.4,195.1,333.1z"/>
	</g>
	<g>
		<path class="st59" d="M201.9,336.7C201.9,336.7,201.9,336.7,201.9,336.7c-0.2,0-0.4,0-0.6,0C201.5,336.7,201.7,336.7,201.9,336.7z
			"/>
	</g>
	<g>
		<path class="st59" d="M229.7,333.7C229.7,333.7,229.7,333.7,229.7,333.7C229.7,333.7,229.7,333.7,229.7,333.7z"/>
	</g>
	<g>
		<path class="st59" d="M201.3,336.7c-0.2,0-0.4,0-0.6-0.1C200.9,336.7,201.1,336.7,201.3,336.7z"/>
	</g>
	<g>
		<path class="st59" d="M231.4,334.2c-0.1,0-0.2,0-0.3-0.1C231.1,334.2,231.2,334.2,231.4,334.2z"/>
	</g>
	<g>
		<path class="st59" d="M228.4,333.1c-0.1-0.1-0.2-0.1-0.3-0.2C228.2,333,228.3,333.1,228.4,333.1z"/>
	</g>
	<g>
		<path class="st59" d="M223,336.6c-0.2,0-0.4,0.1-0.6,0.1C222.6,336.7,222.8,336.7,223,336.6z"/>
	</g>
	<g>
		<path class="st59" d="M220.8,336.6c0.5,0.1,1,0.2,1.5,0.1C221.7,336.7,221.2,336.7,220.8,336.6
			C220.8,336.5,220.8,336.6,220.8,336.6z"/>
	</g>
	<g>
		<path class="st59" d="M234.5,334.5c-0.1,0-0.2,0-0.3,0C234.3,334.5,234.4,334.5,234.5,334.5z"/>
	</g>
	<g>
		<path class="st59" d="M232.7,334.4C232.7,334.4,232.7,334.4,232.7,334.4C232.7,334.4,232.7,334.4,232.7,334.4z"/>
	</g>
	<g>
		<path class="st59" d="M195.4,333c-0.1,0.1-0.2,0.1-0.3,0.2C195.2,333.1,195.3,333,195.4,333z"/>
	</g>
	<g>
		<polygon class="st59" points="238.9,333.5 238.9,333.5 238.9,333.5 		"/>
	</g>
	<g>
		<path class="st59" d="M237.5,334c-0.1,0-0.1,0-0.2,0.1C237.4,334,237.5,334,237.5,334z"/>
	</g>
	<g>
		<path class="st59" d="M187.2,334.3C187.2,334.3,187.2,334.3,187.2,334.3C187.2,334.3,187.2,334.3,187.2,334.3z"/>
	</g>
	<g>
		<path class="st59" d="M193.8,333.8c0,0-0.1,0-0.1,0C193.7,333.8,193.7,333.8,193.8,333.8z"/>
	</g>
	<g>
		<path class="st59" d="M192.3,334.2c-0.1,0-0.1,0-0.2,0C192.1,334.2,192.2,334.2,192.3,334.2z"/>
	</g>
	<g>
		<path class="st59" d="M190.6,334.5c0,0-0.1,0-0.1,0C190.5,334.5,190.5,334.5,190.6,334.5z"/>
	</g>
	<g>
		<path class="st60" d="M232.7,334.4c-0.5,0-0.9-0.1-1.4-0.2C231.8,334.3,232.3,334.4,232.7,334.4z"/>
	</g>
	<g>
		<path class="st60" d="M238.9,333.5c-0.4,0.2-0.9,0.4-1.4,0.5C238,333.9,238.5,333.7,238.9,333.5z"/>
	</g>
	<g>
		<path class="st60" d="M234.2,334.5c-0.5,0-1,0-1.4-0.1C233.2,334.5,233.7,334.5,234.2,334.5z"/>
	</g>
	<g>
		<path class="st60" d="M237.3,334.1c-0.9,0.3-1.9,0.4-2.9,0.4C235.4,334.5,236.4,334.3,237.3,334.1z"/>
	</g>
	<g>
		<path class="st60" d="M223,336.6c2-0.3,3.8-1.8,4-4.5C226.8,334.5,225.1,336.2,223,336.6z"/>
	</g>
	<g>
		<path class="st60" d="M222.4,336.7c-0.1,0-0.1,0-0.2,0C222.3,336.7,222.4,336.7,222.4,336.7z"/>
	</g>
	<g>
		<path class="st60" d="M231,334.1c-0.5-0.1-0.9-0.2-1.3-0.4C230.1,333.9,230.6,334,231,334.1z"/>
	</g>
	<g>
		<path class="st60" d="M228.1,332.9c-0.4-0.2-0.8-0.5-1.2-0.8C227.3,332.4,227.7,332.7,228.1,332.9z"/>
	</g>
	<g>
		<path class="st60" d="M229.7,333.7c-0.4-0.2-0.8-0.4-1.2-0.6C228.8,333.3,229.2,333.5,229.7,333.7z"/>
	</g>
	<g>
		<g>
			<g>
				<path class="st63" d="M201.9,336.7c-2.6,0.2-5.1-1.7-5.3-4.6c-3.5,2.8-8.6,3-12.5,1.1c-1.1-0.6-2.1-1.3-2.9-2.2
					c-0.3,1.4-1.5,2.4-2.8,2.9c0.4,13.1-6.4,3.6-17.3,7.8c-8.3,3.2-9.9,16.4-3.4,21.4c3.8,2.9,42.9,11.2,46.5-10.9
					c1-5.9,1.5-11.8,1.5-17.8C204.6,336,203.2,336.6,201.9,336.7z"/>
			</g>
			<g>
				<path class="st63" d="M262.6,341.8c-11-4.2-17.7,5.2-17.3-7.8c-1.4-0.4-2.6-1.5-2.8-2.9c-1,1.1-2.2,1.9-3.5,2.4
					c-3.8,1.7-8.6,1.3-11.9-1.3c-0.2,3.2-3.4,5.2-6.2,4.4c-1-0.3-2-0.9-2.8-2.1c0.1,27.4,3.1,36.5,40.3,31.3
					C275.1,363.4,271.5,345.2,262.6,341.8z"/>
			</g>
		</g>
		<g>
			<path class="st60" d="M204.8,324.8c-0.1-1.4-0.4-2.3-0.9-3c-2.2-3-7.4-0.2-7.5-0.2c-0.2,0-4.2-5-7.3-0.8
				c-0.4-2.7-3.3-4.8-5.7-5.4c-1.1-0.3-2.1-0.2-2.7,0.2l0.1,0c-9.2,1.3-9.9,8.2-6.2,10.3c-1.2-0.3-2.5-0.2-3.6,0.3
				c-9,4.4,8.6,12.5,10.1,4.8c0.8,0.9,1.9,1.6,2.9,2.2c0,0,0,0,0,0c0.2,0.1,0.4,0.2,0.6,0.2c0.3,0.1,0.6,0.3,0.9,0.4
				c0.5,0.2,1.1,0.3,1.6,0.4c0,0,0,0,0,0c1.1,0.2,2.1,0.3,3.2,0.2c0,0,0.1,0,0.1,0c0.5,0,1-0.1,1.5-0.2c0.1,0,0.1,0,0.2,0
				c0.5-0.1,0.9-0.2,1.3-0.4c0,0,0.1,0,0.1,0c0.5-0.2,0.9-0.4,1.3-0.6c0.1-0.1,0.2-0.1,0.3-0.2c0.4-0.2,0.8-0.5,1.2-0.8
				c0.1,2.4,2,4.1,4.1,4.5c0.2,0,0.4,0.1,0.6,0.1c0,0,0,0,0,0c0.2,0,0.4,0,0.6,0c2.1-0.2,4.1-1.5,4.5-4c0.1,0.7,1.5,1.2,2.2-0.7
				C210.5,326.7,205.9,321.8,204.8,324.8z"/>
		</g>
		<g>
			<path class="st60" d="M249,325.9c3.7-2.1,3-9-6.2-10.3l0.1,0c-0.7-0.6-1.9-0.5-3.3,0c-2.2,0.8-4.7,2.8-5,5.3
				c-1.5-2.1-5.3-2-6.6,0.2c-0.5,0.8-6.8-2.6-8.6,1.7c-0.2,0.6-0.4,1.2-0.5,2c-1.2-3-5.7,1.9-3.8,7.2c0.7,2,2.1,1.4,2.2,0.7
				c0.4,2.1,1.8,3.4,3.5,3.9c0.5,0.1,1,0.2,1.5,0.2c0.1,0,0.1,0,0.2,0c0.2,0,0.4,0,0.6-0.1c2-0.4,3.8-2.1,4-4.5
				c0.4,0.3,0.8,0.5,1.2,0.8c0.1,0.1,0.2,0.1,0.3,0.2c0.4,0.2,0.8,0.4,1.2,0.6c0,0,0,0,0,0c0.4,0.2,0.9,0.3,1.3,0.4
				c0.1,0,0.2,0.1,0.3,0.1c0.5,0.1,0.9,0.2,1.4,0.2c0,0,0,0,0,0c0.5,0,1,0.1,1.4,0.1c0.1,0,0.2,0,0.3,0c1,0,1.9-0.2,2.9-0.4
				c0.1,0,0.1,0,0.2-0.1c0.5-0.1,0.9-0.3,1.4-0.5l0,0c1.3-0.6,2.5-1.4,3.5-2.4c1,5.2,11.3,3.2,12.3-0.7
				C255.3,327.9,252.8,325.1,249,325.9z"/>
		</g>
	</g>
	<g>
		<path class="st60" d="M145.4,170c0-0.1,0-0.1,0-0.2c0.1-0.1,0.2-0.3,0.6-0.4c-0.1-0.3-0.2-0.6-0.3-1
			C144.8,168.3,144.5,168.8,145.4,170z"/>
	</g>
	<g>
		<path class="st59" d="M124.4,179.9C124.4,179.9,124.4,179.9,124.4,179.9c-0.1,0-0.2,0.1-0.3,0.1c-0.6-0.4-1-0.9-1.6-1.2
			c0.5,0.4,1.1,0.8,1.6,1.3C124.2,180,124.3,180,124.4,179.9C124.4,179.9,124.4,179.9,124.4,179.9z"/>
	</g>
	<g>
		<path class="st59" d="M297,209.5c0.4-0.3,0.7-0.6,1.1-1c-0.3-0.2-0.6-0.3-0.9-0.5C297.4,208.5,297.3,209,297,209.5z"/>
	</g>
	<g>
		<path class="st60" d="M297,209.5c-0.3,0.3-0.7,0.6-1,0.9C296.4,210.2,296.7,209.9,297,209.5z"/>
	</g>
	<g>
		<path class="st60" d="M124.5,179.9C124.4,179.9,124.4,179.9,124.5,179.9c3.5-1.2,11-5.1,21-9.9
			C136.2,174.4,129.3,177.4,124.5,179.9z"/>
	</g>
	<g>
		<g>
			<path class="st63" d="M333.4,184.1c-2.6-2-5.8-1.5-9-0.9c-1,0.2-2,0.4-3,0.6c-1.1,0.2-2.1,0.2-3.1,0.2c-0.4,0-0.9-0.1-1.3-0.2
				c0.6-0.3,1.3-0.6,2.1-1c1.8-1,3.5-2.6,3.7-6.4c0.9-15.9-14.8-10.9-23.6,6.2c0,0,0,0,0,0c0.3-3.8-1-7.7-2.8-10.7
				c-4.6-7.3-12.8-9.9-11.6,4c0.1,1.5,0.4,3.1,0.7,5c0.4,2.3,1.4,4.8,1.9,7.8c0.1,0.8-0.2,1.1-0.5,1.5l20.1,11.2
				c0.1,0,0.2,0,0.3-0.1c0.3-0.2,0.6-0.4,0.9-0.6c4.1-0.7,9-2.1,13.4-3.9c2.6-1.1,5-2.3,7.1-3.5C334,190.2,336.8,186.7,333.4,184.1z
				"/>
		</g>
		<g>
			<path class="st63" d="M145.7,168.5c-1.5-5.6,1.3-12.9,0.2-18.5c-1.3-6.4-8.7-8-13.7-0.5c-0.8,1.3-1.6,2.8-2.3,4.7
				c-0.2-0.2-0.3-0.4-0.5-0.6c-1.7-2.1-3.4-4.2-4.5-6.6c-6.2-12.8-24.9-5.9-10.2,12.7c0.2,0.3,0.5,0.6,0.7,0.9
				c-1.6-0.1-3.3-0.2-5-0.1c-4.1,0.2-8.2,1.3-10.9,4.2c-4.7,5.3-2.2,6,4.2,7.5c1.4,0.3,2.9,0.7,4.6,1.1c4,1.1,8.9,2.7,14,5.5
				c0.6,0.3,1,0.8,1.6,1.2c0.1,0,0.2-0.1,0.3-0.1c0,0,0.1,0,0.1,0c4.8-2.4,11.8-5.5,21-9.9C144.5,168.8,144.8,168.3,145.7,168.5z"/>
		</g>
		<g>
			<path class="st60" d="M307.2,201.5c-0.1,0-0.1,0-0.1,0l-0.7-0.4l-19.4-10.9c-0.2-0.1-5-3.4-8.8-1.5c-2.1,1-3.1,4.2-1.4,5.8
				c1,1,2.7,1.1,4.1,1.4c1.1,0.2,2.1,0.6,2.6,1.6c0.7,1.5-0.6,6,2.4,9.3c2,2.3,7.7,4.2,9.5,3.8c0.2,0,0.4-0.1,0.6-0.2
				c0.3-0.3,0.7-0.6,1-0.9c0.3-0.4,0.4-1,0.2-1.5c0.3,0.2,0.6,0.3,0.9,0.5C310.4,215.7,313.9,201.8,307.2,201.5z"/>
		</g>
		<g>
			<path class="st60" d="M145.7,168.5c0.1,0.3,0.2,0.7,0.3,1c-0.3,0.1-0.5,0.2-0.6,0.4c0,0.1,0,0.2,0,0.2c-10,4.7-17.5,8.6-21,9.9
				c-0.1,0.1-0.2,0.1-0.3,0.2c-5.9,3.1-8.3,5.2-7.2,7.6c1.1,2.2,5.9,2.6,8.5-0.5c-0.7,1.1-1.2,2.3-1.5,3.6c3.3,1.9,5.8,0.3,9.4-2.3
				c3.3-2.4,7.5-5.5,14.1-7.4c1.5-0.4,2.7-1,3.6-1.5C157.5,175.5,148.5,168.9,145.7,168.5z"/>
		</g>
	</g>
	<g>
		<g>
			<path d="M188.5,161.7c-2.5-13.4,9.2-14.5,12.4-7.9C206.8,165.7,190.9,174.6,188.5,161.7z"/>
			<path class="st19" d="M194.4,153.7c-4.4,0.9-0.8,7.3,1.2,4.7C196.8,156.9,196.5,153.3,194.4,153.7z"/>
			<path class="st19" d="M197.1,159.2c-0.9-0.5-1.9-0.1-2,0.8C194.3,164.2,200.7,161,197.1,159.2z"/>
		</g>
		<g>
			<path d="M222.6,161.7c-2.5-13.4,9.2-14.5,12.4-7.9C240.9,165.7,225,174.6,222.6,161.7z"/>
			<path class="st19" d="M228.5,153.7c-4.4,0.9-0.8,7.3,1.2,4.7C230.9,156.9,230.6,153.3,228.5,153.7z"/>
			<path class="st19" d="M231.1,159.2c-0.9-0.5-1.9-0.1-2,0.8C228.4,164.2,234.8,161,231.1,159.2z"/>
		</g>
	</g>
</g>
</svg>
