<?xml version="1.0" encoding="utf-8"?>
<!-- Generator: Adobe Illustrator 22.0.0, SVG Export Plug-In . SVG Version: 6.00 Build 0)  -->
<svg version="1.1" id="Calque_1" xmlns="http://www.w3.org/2000/svg" xmlns:xlink="http://www.w3.org/1999/xlink" x="0px" y="0px"
	 viewBox="60 60 310 310" style="enable-background:new 0 0 432 432;" xml:space="preserve">
<style type="text/css">
	.st0{fill:#754C24;}
	.st1{fill:#E6E6E6;}
	.st2{fill:#4D4D4D;}
	.st3{fill:#808080;}
	.st4{fill:#006837;}
	.st5{fill:#C1272D;}
	.st6{fill:#CCCCCC;}
	.st7{fill:#EAC675;}
	.st8{fill:#FBB03B;}
	.st9{fill:#FFFFFF;}
	.st10{fill:#8C6239;}
	.st11{fill:#A67C52;}
	.st12{fill:#A81621;}
	.st13{fill:#D6A14D;}
	.st14{fill:#C69C6D;}
	.st15{fill:#84D1A6;}
	.st16{fill:#8FAADB;}
	.st17{fill:#E0A6C2;}
	.st18{fill:#603813;}
	.st19{fill:#ED1C24;}
	.st20{fill:#4D9370;}
	.st21{fill:#7CC6E0;}
	.st22{fill:#2F7DA8;}
	.st23{fill:#F15A24;}
	.st24{fill:#009245;}
	.st25{fill:#662D91;}
	.st26{fill:#679CBA;}
	.st27{fill:#C77F2C;}
	.st28{fill:#831925;}
	.st29{fill:#E6E5E5;}
	.st30{fill:#AE5860;}
	.st31{fill:#C6B198;}
	.st32{fill:none;stroke:#000000;stroke-width:2;stroke-miterlimit:10;}
	.st33{fill:#AA3642;}
	.st34{fill:#901C25;}
	.st35{fill:#F1F1F1;}
	.st36{fill:#E42528;}
	.st37{fill:#736358;}
	.st38{fill:#F29222;}
	.st39{fill:#754D24;}
	.st40{fill:#094D84;}
	.st41{fill:#1660A7;}
	.st42{fill:#C59B6C;}
	.st43{fill:#A1272D;}
	.st44{fill:#036838;}
</style>
<g>
	<g>
		<path class="st10" d="M175.8,205.3c-25.9-1.9-43.2,5-55.2,15.5c4.7-0.2,7.4-1.1,8.9-0.9c-24.4,23.3-25,42.3-25.3,45.2
			c3.8-2.7,8-6.3,9.4-6.7c-3.8,8.5-1.8,23.3-1.6,25.3c2.7-6,2.9-8.7,3.4-9.6c1.1,10.1,12.3,17.2,29.7,17.4
			C140.9,279.6,175.8,205.3,175.8,205.3z"/>
		<path class="st10" d="M250,206.2c41,1.1,59.1,15,66.7,30.4c-3.6-2-13.2-6.9-18.3-7.2c16.8,12.1,21.5,22.8,22.8,34.4
			c-4.7-4.7-6-10.1-10.5-12.1c3.6,11,11.8,33.3-28,38.7C276.4,252.3,250,206.2,250,206.2z"/>
	</g>
	<path class="st11" d="M288.7,117.1c4.6-4.9,5.8-17.4,3-21.5c5.1,0.9,6.1,0.4,8.8,2.2c-2.5-8.1-9.1-15.1-12.2-15.1
		c5.2-2.2,6.1-4.2,7.8-4.8c-9.1-3.7-26.7-25.9-49.3,4.5c-8.5-10.6-18.8-13.9-25.9-14.9c3.9,3.9,4.2,7.6,4.5,9.8
		c-8.8-10.4-26.5-13-30.9-12.7c9,4.5,12,8.3,12.9,10c-10-1.9-16.1-2.8-17.6-2.8c2.4,1.5,4.1,3.4,4.7,4.8c-9.3-0.4-21,5.8-21,5.8
		c-6.3-7.5-17.6-25.2-46.4-4.6c2.1,2.4,3.6,1.2,6.9,3.1c-9.4,3.4-11,11.9-11.3,13.6c3.7-2.1,6.7-2.4,7.5-2.5
		c-0.1,13.4,2.4,17.9,3.4,20.6c1.8-4,9.2-1.6,10.1,0c-6.1,14.8-6.3,22.7-6.1,24.3c3.6-1.2,8.5-3.7,9.7-4
		c-6.3,12.4-6.9,30.8-6.6,34.3c2.5-0.2,7.5-5.2,9.4-7c-2.7,12.7,0.7,20.3,1,22.2c2.4-3.3,4.3-5.5,5.4-6.1c0,5.8,4.8,18.2,23.1,24.7
		c-24.9,12.8-42,38.7-42,68.7c0,42.6,34.5,77.1,77.1,77.1s77.1-34.5,77.1-77.1c0-31.8-19.2-59.1-46.7-70.9
		c18.1-6.8,28-17.2,29.6-21.5c1.6,7.8,1.6,10.6,1.6,12.1c4.6-12.8,4.6-21.6,3.6-24c2.7,4.5,4,6.9,4.3,8.3c1-11.8,1.9-23.6-7-35.5
		c11.2,6.9,12.4,7.3,14.6,12.2c-1.9-14.3-13.4-29.7-20.6-34C287.7,113.9,288.7,115.5,288.7,117.1z"/>
	<g>
		<g>
			<path class="st10" d="M241.5,340.4c-5.1-14.5,0.9-56.7,19.2-67.5c20.1,5.1,26.8,11.6,30.2,13.2c15-8.7,26.4-22.6,45.4-6.5
				c19,16.1-10.1,59-14.1,65.1c-4,6-15.7,30-44.3,18.8C249.4,352.3,241.5,340.4,241.5,340.4z"/>
			
				<ellipse transform="matrix(0.4755 -0.8797 0.8797 0.4755 -119.3027 446.5827)" class="st11" cx="314.9" cy="323.3" rx="30.9" ry="14.2"/>
			<g>
				<path class="st0" d="M289.7,285.9c-7.7,5.5-13.1,14.1-17.4,22.3c-0.7,1.3,1.3,2.4,1.9,1.1c4.1-7.8,8.1-16.8,15.5-22.1
					C290.9,286.5,289.7,285.9,289.7,285.9z"/>
			</g>
		</g>
		<g>
			<path class="st10" d="M190.5,341.2c5.1-14.5-0.9-56.7-19.2-67.5c-20.1,5.1-26.8,11.6-30.2,13.2c-15-8.7-26.4-22.6-45.4-6.5
				s10.1,59,14.1,65.1c4,6,15.7,30,44.3,18.8S190.5,341.2,190.5,341.2z"/>
			
				<ellipse transform="matrix(0.8797 -0.4755 0.4755 0.8797 -140.0243 94.6831)" class="st11" cx="117.1" cy="324.1" rx="14.2" ry="30.9"/>
			<g>
				<path class="st0" d="M142.3,286.7c7.7,5.5,13.1,14.1,17.4,22.3c0.7,1.3-1.3,2.4-1.9,1.1c-4.1-7.8-8.1-16.8-15.5-22.1
					C141.1,287.2,142.3,286.7,142.3,286.7z"/>
			</g>
		</g>
	</g>
	<g>
		<path d="M190.9,150.9c-3.1-8.7,13.4-8.1,17.6-8.1s23.1,0.2,19.9,8.7c-3.2,8.5-12.7,15.7-20.7,15.7S192.4,155.1,190.9,150.9z"/>
		<polygon class="st9" points="202.9,145.5 194.3,149.3 197,153.2 206.1,147.5 		"/>
	</g>
	<path d="M217.7,178.1c-3.1,0.8-5.9,1.2-8.7,1.3c-2.8,0.1-5.6-0.3-8.6-1.1c-3-0.8-6.1-2-9.9-3.4c1.1,3.8,3.5,7.1,6.8,9.5
		c3.3,2.4,7.5,3.8,11.8,3.8c4.3,0,8.4-1.5,11.7-3.9c3.2-2.4,5.7-5.5,6.9-9.3C223.9,176.1,220.8,177.4,217.7,178.1z"/>
	<g>
		<g>
			<circle cx="191.6" cy="124.2" r="6.4"/>
			<circle class="st9" cx="189.6" cy="122.2" r="2.5"/>
		</g>
		<g>
			<circle cx="229.5" cy="124.2" r="6.4"/>
			<circle class="st9" cx="227.5" cy="122.2" r="2.5"/>
		</g>
	</g>
	<g>
		<path class="st10" d="M179.7,111.3c-0.4-1.1-0.1-2.4,0.5-3.4c0.6-1,1.6-1.7,2.7-2.2c1.1-0.4,2.3-0.5,3.4-0.2
			c1.1,0.3,2.1,0.8,2.8,1.8c-1.1,0.4-2,0.6-2.8,0.9c-0.8,0.3-1.5,0.5-2.2,0.8c-0.7,0.3-1.3,0.5-2,0.8
			C181.5,110.2,180.7,110.6,179.7,111.3z"/>
		<path class="st10" d="M239.6,111.3c-1-0.7-1.7-1.1-2.5-1.4c-0.7-0.3-1.4-0.6-2-0.8c-0.7-0.3-1.4-0.5-2.2-0.8
			c-0.8-0.3-1.7-0.5-2.8-0.9c0.7-1,1.7-1.6,2.8-1.8c1.1-0.3,2.3-0.2,3.4,0.2c1.1,0.4,2.1,1.2,2.7,2.2
			C239.7,108.9,240,110.2,239.6,111.3z"/>
	</g>
	<g>
		<path class="st10" d="M165.6,86.9c-5.4-5.1-20.1-7.3-20.4,9.4c3.1-5.2,7.6-15.7,18.3-7.9C164.6,88.4,165.6,86.9,165.6,86.9z"/>
		<path class="st10" d="M256.8,88.3c5.4-5.1,20.1-7.3,20.4,9.4c-3.1-5.2-7.6-15.7-18.3-7.9C257.8,89.8,256.8,88.3,256.8,88.3z"/>
	</g>
	<g>
		<path class="st5" d="M286.1,218.5c0.1-0.6,0.1-1.4,0-2.1c-1.6-17.7-146.5-8.7-147.8,8.8c0,0.7,0,1.2,0,1.8c-3-6.1-5.8-17.8-3-33.6
			c29.8-17.8,66.6,4.3,72.8,9.6c6.5-6.1,47.7-32.4,78.4-17.1C290.5,201.1,288.5,212.2,286.1,218.5z"/>
		<path class="st12" d="M286.1,218.5c0,0.2-0.1,0.4-0.1,0.6c-3,12.1-36.3-5.1-68.8-5.7l-10.9-0.1c-33.9,3.3-64.4,26.4-67.7,14.6
			c-0.1-0.3-0.1-0.6-0.2-0.9c-0.1-0.5-0.1-1.1,0-1.8c1.2-17.5,146.2-26.5,147.8-8.8C286.2,217.2,286.2,217.9,286.1,218.5z"/>
		<path class="st12" d="M203.8,197.3c-0.7,3.2-0.9,16.7,4,21.5c6.1-0.7,10.6-2.4,11.6-2.4c0.1-8.1-1-18.2-4-21.6
			C211.7,195.7,206.7,195.7,203.8,197.3z"/>
	</g>
</g>
</svg>
