<?xml version="1.0" encoding="utf-8"?>
<!-- Generator: Adobe Illustrator 19.2.1, SVG Export Plug-In . SVG Version: 6.00 Build 0)  -->
<svg version="1.1" id="Calque_1" xmlns="http://www.w3.org/2000/svg" xmlns:xlink="http://www.w3.org/1999/xlink" x="0px" y="0px"
	 viewBox="50 50 330 330" style="enable-background:new 0 0 432 432;" xml:space="preserve">
<style type="text/css">
	.st0{fill:#4A3017;}
	.st1{fill:#C69C6D;}
	.st2{fill:#754C24;}
	.st3{fill:#FCD3B2;}
	.st4{fill:#FFFFFF;}
	.st5{fill:#918916;}
	.st6{fill:#615C0F;}
	.st7{fill:#C1272D;}
	.st8{fill:#FF8B00;}
	.st9{fill:#6B2B03;}
	.st10{fill:#763900;}
	.st11{fill:#F7931E;}
	.st12{fill:#4A1E02;}
	.st13{fill:#A35521;}
	.st14{fill:#471D00;}
	.st15{fill:#99602C;}
	.st16{fill:#663B15;}
	.st17{fill:#916C16;}
	.st18{fill:#4D4D4D;}
	.st19{fill:#5B1391;}
	.st20{fill:#FBA012;}
	.st21{fill:#998675;}
	.st22{fill:#F15A24;}
	.st23{fill:#8CC63F;}
	.st24{fill:#2E3192;}
	.st25{fill:#DE6F00;}
	.st26{fill:#B82323;}
</style>
<g>
	<g>
		<path class="st7" d="M256.3,343c-21.8-5-19.3,0.7-19-30.1c-0.6,0.3-1.3,0.5-2.1,0.5c-0.5,0-0.9-0.1-1.4-0.2
			c0.4,30.1,0.4,28.2,0,29.5c-1,3.2-11,3.5-8.1,7.5c2.8,3.8,11-11.1,16.2-0.5c1.5,3.1,4.2,8.1,5.5,8.1c3.9,0-2.9-9.9-0.9-10.3
			c1.1-0.2,8.6,9.3,10.2,8.1c3.4-2.7-7.9-8.8-7.2-10.3c0.6-1.2,9.4,3.8,9.2,0.5C258.6,344.3,257.6,343.2,256.3,343z"/>
		<path class="st7" d="M198.2,342.6c-0.4-1.3-0.3,0.6,0-29.2c-0.4,0.1-0.8,0.2-1.3,0.2c-0.8,0-1.5-0.2-2.2-0.5
			c0.3,30.4,2.6,24.8-19,29.8c-1.3,0.3-2.3,1.4-2.4,2.7c-0.2,3.4,8.5-1.7,9.2-0.5c0.8,1.5-10.6,7.6-7.2,10.3
			c1.5,1.2,9.1-8.3,10.2-8.1c2,0.5-4.8,10.4-0.9,10.3c1.3,0,3.9-5,5.5-8.1c5.2-10.7,13.4,4.3,16.2,0.5
			C209.2,346.1,199.2,345.8,198.2,342.6z"/>
	</g>
	<g>
		<path class="st8" d="M153.5,195.6c-11.4,9.6-2.9,28.2,3.2,38.4c0.1,0.2,0.3,1.2-0.1,1.3c-12.3,3.2-38.5,14.6-27.1,31.8
			c9.1,13.7,29.8,17.5,44.9,18.5c0.9,0.1,1.8,0.1,2.7,0.1c-10.4-10.6-15.3-24.2-15.3-37.8c0-0.2,0-0.5,0-0.7
			c0-7.8,1.7-15.4,4.8-22.2c4.5-10.4,12.2-19.5,22.6-25.7C179.2,193.8,163.4,187.2,153.5,195.6z"/>
		<path class="st8" d="M235.9,189.4c-0.1,0-1.6,0.5-1.6,0.6c-3,0.5-5.8-1.5-7.6-3.7c-0.1,2.3-0.1,5,1.6,6.5c1.1,1,2.5,1.3,3.9,1.7
			c2.4,0.8,4.8,1.7,7.1,2.8c-0.5-1.7-1-3.4-1.6-5.1C237.2,191.2,237.1,189.6,235.9,189.4z"/>
		<path class="st8" d="M204.4,174.8c-6.5,6.1-10.1,14.5-12.5,23c3.6-1.6,8.2-2.5,11.3-4.5c1.6-1,2.3-3.3,2.4-5.9
			c0-2.2-0.1-4.4-0.3-6.6C205,178.5,204.6,176.4,204.4,174.8z"/>
		<path class="st8" d="M275.1,234.5c-0.4-0.1-0.3-1.1-0.1-1.3c6-10.3,14.8-30,2-38.9c-10.3-7.1-25-0.9-34.8,4.6
			c12.1,6.8,20.4,17.4,24.7,29.2c0.2,0.5,0.3,0.9,0.5,1.4c0,0.1,0.1,0.3,0.1,0.4c1.8,5.4,2.8,11.2,2.8,17.2c0,4.1-0.5,8.2-1.4,12.1
			c-0.2,0.8-0.4,1.6-0.6,2.4c-0.1,0.3-0.1,0.5-0.2,0.8c-2.2,8.1-6.4,15.9-12.5,22.6c15.8-0.7,36.4-4.2,46.3-17.7
			C314.7,249.7,287.9,237.8,275.1,234.5z"/>
	</g>
	<path class="st9" d="M337.9,131.3c0,0.1,0,0.1,0.1,0.2C338,131.5,338,131.4,337.9,131.3z"/>
	<g>
		<path class="st10" d="M246.1,204c-5-3.5-10.3-5.4-16-7.5c-3.3-1.2-4.9-3.8-5.1-7.2c-0.2-2.8,0-5.1-0.7-7.9c-0.6-2.5-1-5.1-1.2-7.6
			c-0.1-1.6-0.3-11.8,0.5-13.6c-0.9,1.3-3.7,6.2-4.3,6.9c-0.9,1.1-2.5,3.3-4.2,3.2c-3,0-6.1-5.6-7.4-7.7c-1.8-2.7-8.8-11.4-4.5-14.4
			c2.6-1.8,7.3-1.7,10.2-1.7c3.9-0.1,8.6-0.2,12.4,1.2c1.9,0.7,2.5,1.4,2.7,3.3c0.3,2.6,0.2,5.5,0.5,8.1c0.2,1.7,0.2,3.6,0.7,5.3
			c0.6,2.2,0.8,2,2.8,1c14.7-7.8,22.4-25.8,16.7-41.6c-6.9-19.2-40.9-36.1-62.8-6.4c-2.2,3-3.8,6.9-4.5,10.5
			c-2,9.2,0.1,18.8,5.4,26.5c3.9,5.6,8.8,8.7,14.5,12.1c3.3,1.9,4,4.7,4.5,8.2c0.7,5,1.9,11.4,0.8,16.4c-1,4.7-4.9,5.3-8.8,6.7
			c-5.7,2.1-11.1,5.1-15.8,9c-21.4,17.7-25.5,50.1-8.3,72.2c2.5,3.3,5.4,6.2,8.7,8.8c3.1,2.5,5.1,3.5,5.2,7.4
			c0.2,5.6-0.5,11.4,4.8,15c1.4,1,3,1.6,4.7,1.6c3.6,0,7-2.3,9-5.3c1.3-2,1.6-4.9,3.7-6.3c2.1-1.4,5.2-0.7,7.6-0.7
			c2.3,0,4-0.1,5.6,1.8c1.9,2.4,2.2,5.3,4.5,7.5c2,1.8,4.8,3.1,7.5,2.9c2.2-0.2,4.1-1.3,5.7-2.8c4.1-4.2,3-9.3,3.3-14.5
			c0.2-4.1,4.3-5.8,7.2-8.3c3.2-3,6.2-6.3,8.7-10C275.9,252.6,269.4,220.1,246.1,204z M217,129.4c0.8-8.2,6.3-15.7,14.9-11.8
			c13.7,6.1,7.8,33-8.4,27c0,0,0,0,0,0c0,0,0,0,0,0c-3-1.6-5-4.5-5.9-7.8c0-0.1-0.1-0.2-0.1-0.4C216.8,134,216.7,131.7,217,129.4z
			 M199.4,117.8c7.5-4.1,13.1,1.2,15,8.2c0,0.1,0.1,0.2,0.1,0.3c0.1,0.2,0.1,0.4,0.1,0.6c0.1,0.2,0.1,0.4,0.1,0.6
			c0.4,1.5,0.5,3.1,0.4,4.8c-0.1,1.6-0.4,3-0.9,4.4c-1,3.2-2.8,5.9-5.9,7.6C192.2,150.9,186.7,124.7,199.4,117.8z"/>
	</g>
	<path class="st7" d="M378,235c0-0.5,0-1,0-1.5c-0.2-3.5-1.3-6.8-2.8-9.9c-0.3-0.7-0.7-1.3-1-2c-7.6-13.5-26.1-24.7-50.2-30.9
		c8.4-14.4,13.4-28.5,14.5-40.8c0-0.2,0.1-0.4,0.1-0.6c0-0.1,0-0.1,0-0.2c0.6-6.8-0.1-12.9-1.9-18.2c-1.8-4.5-4.7-8.6-9.1-11.9
		c-0.1-0.1-0.2-0.1-0.2-0.2c-0.1,0-0.1-0.1-0.2-0.1c-0.8-0.6-1.7-1.2-2.6-1.7c-0.1-0.1-0.2-0.1-0.4-0.2c-10.2-5.7-22.4-5.1-34.3-1.8
		c-9.4,2.4-19.5,6.7-29.7,12.7c-8.3-31.7-25.2-53.4-44.8-53.4c-19.7,0-36.7,22-44.9,54.1c-11.2-6.5-22.3-11-32.4-13.2
		c-12.7-3-25.6-2.7-35.3,5.4c-0.2,0.1-0.3,0.3-0.5,0.4c-0.3,0.3-0.6,0.5-0.9,0.8c-3.9,3.7-6.4,8-7.7,12.7c-1.3,4.9-1.6,10.5-1,16.6
		c1.1,12.3,6.2,26.6,14.8,41.1c-12.8,3.4-24,8.1-32.7,13.9c-11,6.8-19.6,16.2-20.6,28.7c0,0.4-0.1,0.8-0.1,1.1c0,0.2,0,0.4,0,0.6
		c0,0,0,0.1,0,0.1c0.4,16.9,16.3,28.5,30,35.2c17,8.3,35.9,12.2,54.8,13.4c-10-2.2-19.8-5.5-28.4-11c-7.6-4.7-14.9-11.6-16.7-20.7
		c-4.5-21.9,21.9-34.1,38.9-38.9c-6.5-11.6-12-25.2-10.2-38.7c1.4-10.5,8.4-18.4,19-20.3c7.1-1.3,14.4-0.1,21.2,2
		c3.7,1.1,7.3,2.5,10.8,4.2c1.3,0.6,5,3.4,6.4,3.2c2.7-0.2,2.5-3,3.2-5.2c0.7-2,1.8-3.9,1.4-6c0-0.1-0.1-0.3-0.2-0.5
		c-0.4-1.1-1.3-2.4-1.8-3.5c-0.1-0.3-0.3-0.6-0.4-0.9c-1.1-2.9-1.9-5.8-2.3-8.9c-0.9-6.6,0.1-13.1,2.5-19.3c0,0,0,0,0,0
		c19.5-42.1,84.8-16.2,68,27.8c-0.6,1.5-1.2,2.9-2,4.4c-1.7,3.2-0.9,6.3,0.7,9.6c1.1,2.3,1.6,2.1,3.9,1.2c1.6-0.6,3.2-1.7,4.8-2.4
		c5.5-2.6,11.4-4.7,17.4-5.9c9.3-1.8,20.3-1.4,27.4,5.8c13.9,13.9,4.5,37.9-3.5,52.5c16.6,4.6,39.4,14.6,39.9,34.7
		c-0.5,21-24.4,31.1-43.6,35.6c13.1-1,26-3.3,38.5-7.4c17-5.6,42.5-18.1,44.3-38.6c0-0.4,0-0.7,0.1-1.1c0-0.3,0-0.7,0-1
		C378,235.4,378,235.2,378,235z"/>
	<path class="st11" d="M212.3,149.2c-2.2,0.1-4.7,0.2-6.9,0.9c-3.3,1.1-0.6,3.7,0.6,6c1.1,2,6.8,12.9,9.9,11.4
		c2.6-2.3,4.7-5.3,6.6-8.2c0.8-1.2,4.7-6.6,4.2-8.1C225.7,148.3,214.8,149.1,212.3,149.2z M211.7,157.1c-3,0-2.9-5.1,0-5.4
		C214.6,152,214.7,157.1,211.7,157.1z M220.7,155.6c-0.5,1.4-2.2,2-3.4,1c-2.1-1.8-0.1-6.3,2.7-4.3
		C220.9,153.1,221.1,154.4,220.7,155.6z"/>
	<path class="st7" d="M236.5,185.3c0.2-0.5,0.3-1.1,0.3-1.6c-0.1-1-0.4-2.2-1-3.6c-1.7-3.4-5-6.9-6.3-9.2c-2.2-4.2-1.3-9.1-2.4-13.5
		c-0.7-2.7-0.9-1-1.4,0.9c-0.3,1.3-0.3,2.7-0.5,4c-0.4,3.1-0.7,6.2-0.7,9.3c0.1,4.7,0.4,10.8,4.3,14.1
		C231.1,187.4,235.2,188.6,236.5,185.3z"/>
	<g>
		<path class="st9" d="M201,168.9c-3.1-1.9-6.2-3.3-9-5.8c-1.1-0.9-4.7-6.1-6.3-5.5c-0.2,0.1-0.3,0.3-0.5,0.5
			c-0.6,1.7-1.2,3.5-1.8,5.4c-0.6,2.4-1,4.7-1.2,5.2c0,0.1-0.1,0.4-0.3,0.3c-13.5-7.9-36.3-18.1-50.6-6.4c-3.9,3.2-6.1,7.1-7.1,11.4
			c0,0.2-0.1,0.4-0.1,0.6c-0.1,0.3-0.1,0.5-0.2,0.8c-0.4,2.6-0.5,5.5-0.3,8.5c1.1,11.2,6.9,23.2,11.6,31.2c0.1,0.2,0.3,1.2-0.1,1.3
			c-13.2,3.5-36.9,13.6-40.1,28.8c0,0.2-0.1,0.3-0.1,0.5c-0.1,0.5-0.2,1.1-0.2,1.6c0,0.1,0,0.2,0,0.3c-0.2,3.8,0.8,7.8,3.5,12.1
			c5.3,8.4,14.7,13.9,23.6,17.6c10.7,4.4,22.1,6.7,33.6,7.7c-13.2-3.4-28.5-10.2-30.2-24c-2-15.8,16.3-24.2,28.8-27.9
			c-5.1-9.3-9.8-21-6.7-31.7c3.1-11,14.3-13.7,24.5-11.8c3.1,0.6,6.1,1.5,9,2.6c8.8,3.4,8.6,6.4,10.8,0c2-5.9,4.7-11.6,8.6-16.5
			C202.4,173.3,205.4,171.7,201,168.9z"/>
		<path class="st9" d="M337.2,247.1c0-0.2,0-0.4,0-0.7c0-0.5-0.1-0.9-0.2-1.4c0-0.2-0.1-0.4-0.1-0.7c-3.2-15.3-27.2-25.5-40.6-28.9
			c-0.4-0.1-0.3-1.1-0.1-1.3c5.1-8.7,11.5-22.4,11.5-34.4c0-0.7,0-1.5-0.1-2.2c0-0.1,0-0.3,0-0.4c-0.1-0.7-0.1-1.4-0.2-2
			c-0.9-5.6-3.5-10.5-8.8-14.1c-14.8-10.1-36.4-0.2-49.7,7.6c-0.2,0.1-0.3-0.2-0.3-0.3c-0.5-2-1.8-10-4.2-9.9c-0.5,0-2.7,3-3.1,3.5
			c-1.5,1.4-3.1,2.7-4.8,3.9c-1.2,0.8-2.9,1.5-4,2.4c-1.3,0.1-1.7,0.5-1.3,1.5c0.8,0.9,1.5,1.9,2.2,2.9c1.9,2.7,3.7,5.7,4.5,8.9
			c0.3,1.2,0.5,2.4,0.4,3.6c0,0.5-0.4,1.5-0.4,2c0,1.4-0.2,0.8,0.7,2.6c0.6,1.2,1,5.1,2,5.9c1.7,1.3,3.4-0.4,4.9-1.1
			c3.4-1.7,6.9-3.1,10.6-4.1c10-2.8,22.9-2.1,27.4,9c4.4,10.9-0.6,23.6-5.9,33.3c12.4,3.6,30.2,11.5,29.2,27
			c-0.9,13.8-16.2,21-28.8,24.5c10.6-1,21.1-3.2,30.9-7.1c9.3-3.7,19-9.1,24.6-17.7C336.3,255,337.4,250.9,337.2,247.1z"/>
	</g>
	<path d="M209.6,138.9c2.2-3.3,2-7.8,0.4-11.3c-2.7-4.9-8.7-5.6-11.8-0.7c-2,3.2-2.3,8-0.5,11.4C200.2,143,206.6,143.3,209.6,138.9z
		 M198.8,133.8c-0.5-0.8,1.5-1.5,1.9-0.9C201.3,133.6,199.4,134.1,198.8,133.8z M199.7,136.4c1.1-1,2.7-1.3,4-1.4
		c1.6-0.1,4.8,0.6,3.7,2.8c-0.8,1.5-2.9,2.2-4.5,2C201.7,139.7,198.3,138,199.7,136.4z"/>
	<path d="M230.9,141.3c2.1-1.2,3.3-3.3,3.8-5.7c0.3-1.2,0.4-2.4,0.3-3.6c-0.3-5.5-3.7-10.6-9.4-8.1
		C217,127.7,220.2,145.6,230.9,141.3z M226.2,135.3c1.5-0.4,3.4-0.5,4.8,0.4c2.4,1.5-0.6,3.6-2.2,4.1c-1.7,0.3-3.5-0.1-4.6-1.4
		C222.7,136.6,224.7,135.7,226.2,135.3z M222.9,133.4c0.2-0.5,1-0.6,1.4-0.7c0.5,0,0.9,0.2,0.7,0.5c-0.2,0.3-1.1,0.8-1.5,0.8
		C223.1,134,222.7,133.8,222.9,133.4z"/>
</g>
</svg>
